<?xml version="1.0" encoding="iso-8859-1"?>
<!-- Generator: Adobe Illustrator 19.0.0, SVG Export Plug-In . SVG Version: 6.00 Build 0)  -->
<svg version="1.1" id="Layer_1" xmlns="http://www.w3.org/2000/svg" xmlns:xlink="http://www.w3.org/1999/xlink" x="0px" y="0px"
	 viewBox="0 0 512 512" style="enable-background:new 0 0 512 512;" xml:space="preserve">
<g>
	<path style="fill:#E6EEF4;" d="M423.724,0H88.276c-9.754,0-17.655,7.901-17.655,17.655v476.69c0,9.754,7.901,17.655,17.655,17.655
		h335.448c9.754,0,17.655-7.901,17.655-17.655V17.655C441.379,7.901,433.479,0,423.724,0"/>
	<g>
		<polygon style="fill:#D71E00;" points="256,176.552 150.069,308.966 256,441.379 361.931,308.966 		"/>
		<path style="fill:#D71E00;" d="M98.869,100.634c-2.925,3.9-2.135,9.433,1.766,12.359c3.9,2.925,9.433,2.135,12.359-1.766
			l52.966-70.621c2.925-3.9,2.135-9.433-1.766-12.359c-3.9-2.925-9.433-2.135-12.359,1.766L98.869,100.634z"/>
		<path style="fill:#D71E00;" d="M150.069,141.241c0,4.875,3.952,8.828,8.828,8.828s8.828-3.952,8.828-8.828V35.31
			c0-4.875-3.952-8.828-8.828-8.828s-8.828,3.952-8.828,8.828V141.241z"/>
		<path style="fill:#D71E00;" d="M105.931,97.103c-4.875,0-8.828,3.952-8.828,8.828c0,4.875,3.952,8.828,8.828,8.828h70.621
			c4.875,0,8.828-3.952,8.828-8.828c0-4.875-3.952-8.828-8.828-8.828H105.931z"/>
		<path style="fill:#D71E00;" d="M176.552,150.069c4.875,0,8.828-3.952,8.828-8.828s-3.952-8.828-8.828-8.828h-35.31
			c-4.875,0-8.828,3.952-8.828,8.828s3.952,8.828,8.828,8.828H176.552z"/>
	</g>
</g>
<g>
</g>
<g>
</g>
<g>
</g>
<g>
</g>
<g>
</g>
<g>
</g>
<g>
</g>
<g>
</g>
<g>
</g>
<g>
</g>
<g>
</g>
<g>
</g>
<g>
</g>
<g>
</g>
<g>
</g>
</svg>
