<?xml version="1.0" encoding="UTF-8" standalone="no"?>
<!-- Created with Inkscape (http://www.inkscape.org/) -->

<svg
   xmlns:dc="http://purl.org/dc/elements/1.1/"
   xmlns:cc="http://creativecommons.org/ns#"
   xmlns:rdf="http://www.w3.org/1999/02/22-rdf-syntax-ns#"
   xmlns:svg="http://www.w3.org/2000/svg"
   xmlns="http://www.w3.org/2000/svg"
   xmlns:sodipodi="http://sodipodi.sourceforge.net/DTD/sodipodi-0.dtd"
   xmlns:inkscape="http://www.inkscape.org/namespaces/inkscape"
   width="63mm"
   height="88mm"
   viewBox="0 0 223.22835 311.81102"
   id="svg5861"
   version="1.1"
   inkscape:version="0.91 r13725"
   sodipodi:docname="hearts-A.svg">
  <defs
     id="defs5863" />
  <sodipodi:namedview
     id="base"
     pagecolor="#ffffff"
     bordercolor="#666666"
     borderopacity="1.0"
     inkscape:pageopacity="0.0"
     inkscape:pageshadow="2"
     inkscape:zoom="0.35"
     inkscape:cx="706.82784"
     inkscape:cy="515.43305"
     inkscape:document-units="px"
     inkscape:current-layer="layer1"
     showgrid="false"
     inkscape:window-width="1366"
     inkscape:window-height="705"
     inkscape:window-x="-4"
     inkscape:window-y="-4"
     inkscape:window-maximized="1"
     fit-margin-top="0"
     fit-margin-left="0"
     fit-margin-right="0"
     fit-margin-bottom="0" />
  <metadata
     id="metadata5866">
    <rdf:RDF>
      <cc:Work
         rdf:about="">
        <dc:format>image/svg+xml</dc:format>
        <dc:type
           rdf:resource="http://purl.org/dc/dcmitype/StillImage" />
        <dc:title></dc:title>
      </cc:Work>
    </rdf:RDF>
  </metadata>
  <g
     inkscape:label="Layer 1"
     inkscape:groupmode="layer"
     id="layer1"
     transform="translate(331.8278,-735.98436)">
    <g
       style="display:inline"
       id="g11195-3-7-3"
       transform="matrix(0.99553774,0,0,0.99680134,-2760.7494,1797.0797)">
      <g
         transform="translate(2179.8759,-1434.2756)"
         id="g10140-6-7-7"
         inkscape:label="5D"
         style="display:inline;opacity:1">
        <rect
           y="370.27557"
           x="260.43304"
           height="311.81104"
           width="223.22835"
           id="rect10142-4-2-9"
           style="display:inline;fill:#ffffff;fill-opacity:1;stroke:#000000;stroke-width:1.0005666;stroke-miterlimit:4;stroke-dasharray:none;stroke-opacity:1"
           rx="10.677567"
           ry="10.664032" />
      </g>
      <g
         id="g10160-2-4-9"
         style="display:inline;opacity:1"
         transform="translate(2440.3089,-1064)" />
      <g
         transform="translate(2466.9005,-1083.9055)"
         id="g10166-2-7-8"
         style="display:inline;opacity:1" />
      <path
         id="path10174-9-0-1"
         d="m -95.396892,-140.12123 c 0,0 -2.2247,-3.18978 -5.225698,-6.9401 -2.0077,-2.50969 -3.6127,-5.22722 -3.762,-7.56795 -0.1711,-2.67388 1.449,-5.35641 4.3821,-5.48643 2.931398,-0.12993 4.121198,2.06168 4.605598,3.86859 0.4844,-1.80691 1.6743,-3.99852 4.6056,-3.86859 2.9331,0.13002 4.5533,2.81255 4.3821,5.48643 -0.1492,2.34073 -1.7543,5.05826 -3.7619,7.56795 -3.0011,3.75032 -5.2258,6.9401 -5.2258,6.9401 z"
         style="display:inline;opacity:1;fill:#d40000"
         inkscape:connector-curvature="0"
         transform="translate(2552.9231,-853.90551)"
         sodipodi:nodetypes="cccscsccc" />
      <path
         id="path10176-9-9-7"
         d="m 93.397604,31.743411 c 0,0.003 -2.2247,3.18978 -5.2257,6.9401 -2.0077,2.50969 -3.6127,5.22722 -3.762,7.56795 -0.1711,2.67388 1.449,5.35641 4.3821,5.48643 2.9314,0.12993 4.1212,-2.06168 4.6056,-3.86859 0.4844,1.80691 1.6743,3.99852 4.6056,3.86859 2.933096,-0.13002 4.553296,-2.81255 4.382096,-5.48643 -0.1492,-2.34073 -1.7543,-5.05826 -3.761896,-7.56795 -3.0011,-3.75032 -5.2239,-6.9375 -5.2258,-6.9401 z"
         style="display:inline;opacity:1;fill:#d40000"
         inkscape:connector-curvature="0"
         transform="translate(2552.9231,-853.90551)" />
      <path
         inkscape:connector-curvature="0"
         style="display:inline;opacity:1;fill:#d40000"
         d="m 2551.923,-933.69987 c 0,0 -4.6663,-7.65547 -10.9609,-16.65626 -4.211,-6.02326 -7.5776,-12.54533 -7.8906,-18.16309 -0.359,-6.41731 3.0392,-12.85538 9.1914,-13.16741 6.1485,-0.31185 8.6442,4.94803 9.6601,9.28461 1.016,-4.33658 3.5117,-9.59646 9.6602,-9.28461 6.1522,0.31203 9.5504,6.7501 9.1914,13.16741 -0.313,5.61776 -3.6796,12.13983 -7.8906,18.16309 -6.2946,9.00079 -10.961,16.65626 -10.961,16.65626 z"
         id="path10178-8-4-1"
         sodipodi:nodetypes="cccscsccc" />
      <path
         inkscape:connector-curvature="0"
         style="display:inline;opacity:1;fill:#d40000"
         d="m -52.766444,-129.39963 c 0,0 -4.6663,-7.65547 -10.9609,-16.65626 -4.211,-6.02326 -7.5776,-12.54533 -7.8906,-18.16309 -0.359,-6.41731 3.0392,-12.85538 9.1914,-13.16741 6.1485,-0.31185 8.6442,4.94803 9.6601,9.28461 1.016,-4.33658 3.5117,-9.59646 9.6602,-9.28461 6.1522,0.31203 9.5504,6.7501 9.1914,13.16741 -0.313,5.61776 -3.6796,12.13983 -7.8906,18.16309 -6.2946,9.00079 -10.961,16.65626 -10.961,16.65626 z"
         id="path10182-1-9-7"
         transform="translate(2552.9231,-853.90551)"
         sodipodi:nodetypes="cccscsccc" />
      <path
         inkscape:connector-curvature="0"
         style="display:inline;opacity:1;fill:#d40000"
         d="m 50.766354,-30.188979 c 0,0 -4.6663,-7.65547 -10.9609,-16.65626 -4.211,-6.02326 -7.5776,-12.54533 -7.8906,-18.16309 -0.359,-6.41731 3.0392,-12.85538 9.1914,-13.16741 6.1485,-0.31185 8.6442,4.94803 9.6601,9.28461 1.016,-4.33658 3.5117,-9.59646 9.6602,-9.28461 6.1522,0.31203 9.5504,6.7501 9.1914,13.16741 -0.313,5.61776 -3.6796,12.13983 -7.8906,18.16309 -6.2946,9.00079 -10.961,16.65626 -10.961,16.65626 z"
         id="path10184-9-1-0"
         transform="translate(2552.9231,-853.90551)"
         sodipodi:nodetypes="cccscsccc" />
      <path
         inkscape:connector-curvature="0"
         style="display:inline;opacity:1;fill:#d40000"
         d="m 50.766354,-129.39963 c 0,0 -4.6663,-7.65547 -10.9609,-16.65626 -4.211,-6.02326 -7.5776,-12.54533 -7.8906,-18.16309 -0.359,-6.41731 3.0392,-12.85538 9.1914,-13.16741 6.1485,-0.31185 8.6442,4.94803 9.6601,9.28461 1.016,-4.33658 3.5117,-9.59646 9.6602,-9.28461 6.1522,0.31203 9.5504,6.7501 9.1914,13.16741 -0.313,5.61776 -3.6796,12.13983 -7.8906,18.16309 -6.2946,9.00079 -10.961,16.65626 -10.961,16.65626 z"
         id="path10188-5-4-8"
         transform="translate(2552.9231,-853.90551)"
         sodipodi:nodetypes="cccscsccc" />
      <path
         inkscape:connector-curvature="0"
         style="display:inline;opacity:1;fill:#d40000"
         d="m -52.766444,-30.188979 c 0,0 -4.6663,-7.65547 -10.9609,-16.65625 -4.211,-6.02326 -7.5776,-12.54533 -7.8906,-18.16309 -0.359,-6.41731 3.0392,-12.85538 9.1914,-13.16741 6.1485,-0.31185 8.6442,4.94803 9.6601,9.28461 1.016,-4.33658 3.5117,-9.59646 9.6602,-9.28461 6.1522,0.31203 9.5504,6.7501 9.1914,13.16741 -0.313,5.61776 -3.6796,12.13983 -7.8906,18.16309 -6.2946,9.00078 -10.961,16.65625 -10.961,16.65625 z"
         id="path10192-3-6-2"
         transform="translate(2552.9231,-853.90551)"
         sodipodi:nodetypes="cccscsccc" />
      <path
         inkscape:connector-curvature="0"
         style="display:inline;opacity:1;fill:#d40000"
         d="m 2551.923,-882.48911 c 0,0 -4.6662,7.65547 -10.9609,16.65627 -4.2109,6.02326 -7.5776,12.54533 -7.8905,18.16308 -0.359,6.41731 3.0391,12.85538 9.1913,13.16741 6.1486,0.31185 8.6443,-4.94803 9.6601,-9.28461 1.0161,4.33658 3.5117,9.59646 9.6603,9.28461 6.1522,-0.31203 9.5503,-6.7501 9.1913,-13.16741 -0.3129,-5.61775 -3.6795,-12.13982 -7.8905,-18.16308 -6.2946,-9.0008 -10.9611,-16.65627 -10.9611,-16.65627 z"
         id="path10196-7-3-4"
         sodipodi:nodetypes="cccscsccc" />
      <path
         id="path10202-2-8-2"
         d="m 50.766354,21.021681 c 0,0 -4.6663,7.65547 -10.9609,16.65626 -4.211,6.02326 -7.5776,12.54533 -7.8906,18.16309 -0.359,6.41731 3.0392,12.85538 9.1914,13.16741 6.1485,0.31185 8.6442,-4.94803 9.6601,-9.28461 1.016,4.33658 3.5117,9.59646 9.6602,9.28461 6.1522,-0.31203 9.5504,-6.7501 9.1914,-13.16741 -0.313,-5.61776 -3.6796,-12.13983 -7.8906,-18.16309 -6.2946,-9.00079 -10.961,-16.65626 -10.961,-16.65626 z"
         style="display:inline;opacity:1;fill:#d40000;stroke:none;stroke-opacity:1"
         inkscape:connector-curvature="0"
         transform="translate(2552.9231,-853.90551)"
         sodipodi:nodetypes="cccscsccc" />
      <path
         inkscape:connector-curvature="0"
         style="display:inline;opacity:1;fill:#d40000;stroke:none;stroke-opacity:1"
         d="m -52.766444,21.021681 c 0,0 -4.6663,7.65547 -10.9609,16.65626 -4.211,6.02326 -7.5776,12.54533 -7.8906,18.16309 -0.359,6.41731 3.0392,12.85538 9.1914,13.16741 6.1485,0.31185 8.6442,-4.94803 9.6601,-9.28461 1.016,4.33658 3.5117,9.59646 9.6602,9.28461 6.1522,-0.31203 9.5504,-6.7501 9.1914,-13.16741 -0.313,-5.61776 -3.6796,-12.13983 -7.8906,-18.16309 -6.2946,-9.00079 -10.961,-16.65626 -10.961,-16.65626 z"
         id="path10204-9-4-6"
         transform="translate(2552.9231,-853.90551)"
         sodipodi:nodetypes="cccscsccc" />
      <path
         style="opacity:1;fill:#d40000;fill-opacity:1;stroke-width:1;stroke-miterlimit:4;stroke-dasharray:none"
         inkscape:connector-curvature="0"
         id="path27-00-0-7-4-0"
         d="m 2446.8051,-1026.8284 c 0.1568,-4.4301 1.7588,-6.0918 4.9126,-8.4097 -2.5161,-1.8149 -3.5768,-4.4903 -3.3608,-6.7675 0.5181,-5.5143 4.7763,-8.2708 9.4228,-8.153 4.6503,0.1231 8.6526,3.8094 8.965,7.8165 0.2713,3.4833 -0.7637,5.1647 -3.2348,6.9967 2.9327,2.4762 4.8059,4.1026 4.7365,8.4659 -0.069,4.3633 -3.7812,9.5555 -10.2508,9.7139 -6.4695,0.1584 -11.3513,-5.2328 -11.1905,-9.6628 l 0,0 z m 18.06,0.016 c 0.2764,-4.011 -3.2695,-6.7165 -7.2719,-6.7558 -3.8969,-0.042 -7.3824,3.2843 -7.3824,6.8854 0,3.867 4.5346,5.9687 7.4634,5.9779 3.5601,0.016 6.9504,-2.6544 7.1909,-6.1075 l 0,0 z m -1.2806,-14.3483 c 0.076,-3.3745 -3.0381,-5.7958 -6.2523,-5.6989 -2.858,0.088 -5.8807,2.2667 -5.8858,5.09 0,3.5344 3.4405,5.2996 6.3783,5.3677 2.6665,0.06 5.6994,-2.2065 5.7598,-4.7588 l 0,0 z m 0,0" />
      <path
         style="opacity:1;fill:#d40000;fill-opacity:1"
         inkscape:connector-curvature="0"
         id="path27-0-1-0-8-9-2"
         d="m 2635.5996,-789.36035 c 0.1568,4.4301 1.7588,6.0918 4.9126,8.4097 -2.5161,1.8149 -3.5768,4.4902 -3.3608,6.7675 0.5181,5.5143 4.7763,8.2708 9.4228,8.1529 4.6503,-0.1231 8.6526,-3.8093 8.965,-7.8164 0.2713,-3.4833 -0.7637,-5.1647 -3.2348,-6.9967 2.9327,-2.4762 4.8059,-4.1026 4.7365,-8.4659 -0.069,-4.3633 -3.7812,-9.5555 -10.2508,-9.7139 -6.4695,-0.1585 -11.3513,5.2328 -11.1905,9.6628 l 0,0 z m 18.06,-0.016 c 0.2764,4.011 -3.2695,6.7165 -7.2719,6.7558 -3.8969,0.042 -7.3824,-3.2843 -7.3824,-6.8854 0,-3.867 4.5346,-5.9687 7.4634,-5.9779 3.5601,-0.016 6.9504,2.6544 7.1909,6.1075 l 0,0 z m -1.2806,14.3483 c 0.076,3.3745 -3.0381,5.7958 -6.2523,5.6989 -2.858,-0.088 -5.8807,-2.2667 -5.8858,-5.09 0,-3.5344 3.4405,-5.2996 6.3783,-5.3677 2.6665,-0.06 5.6994,2.2065 5.7598,4.7588 l 0,0 z m 0,0" />
    </g>
  </g>
</svg>
