<?xml version="1.0" encoding="UTF-8" standalone="no"?>
<!-- Created with Inkscape (http://www.inkscape.org/) -->

<svg
   xmlns:dc="http://purl.org/dc/elements/1.1/"
   xmlns:cc="http://creativecommons.org/ns#"
   xmlns:rdf="http://www.w3.org/1999/02/22-rdf-syntax-ns#"
   xmlns:svg="http://www.w3.org/2000/svg"
   xmlns="http://www.w3.org/2000/svg"
   xmlns:sodipodi="http://sodipodi.sourceforge.net/DTD/sodipodi-0.dtd"
   xmlns:inkscape="http://www.inkscape.org/namespaces/inkscape"
   width="63mm"
   height="88mm"
   viewBox="0 0 223.22835 311.81102"
   id="svg5861"
   version="1.1"
   inkscape:version="0.91 r13725"
   sodipodi:docname="spades-A.svg">
  <defs
     id="defs5863" />
  <sodipodi:namedview
     id="base"
     pagecolor="#ffffff"
     bordercolor="#666666"
     borderopacity="1.0"
     inkscape:pageopacity="0.0"
     inkscape:pageshadow="2"
     inkscape:zoom="0.35"
     inkscape:cx="72.343661"
     inkscape:cy="121.82214"
     inkscape:document-units="px"
     inkscape:current-layer="layer1"
     showgrid="false"
     inkscape:window-width="521"
     inkscape:window-height="411"
     inkscape:window-x="914"
     inkscape:window-y="64"
     inkscape:window-maximized="0"
     fit-margin-top="0"
     fit-margin-left="0"
     fit-margin-right="0"
     fit-margin-bottom="0" />
  <metadata
     id="metadata5866">
    <rdf:RDF>
      <cc:Work
         rdf:about="">
        <dc:format>image/svg+xml</dc:format>
        <dc:type
           rdf:resource="http://purl.org/dc/dcmitype/StillImage" />
        <dc:title></dc:title>
      </cc:Work>
    </rdf:RDF>
  </metadata>
  <g
     inkscape:label="Layer 1"
     inkscape:groupmode="layer"
     id="layer1"
     transform="translate(-40.416231,-342.37349)">
    <g
       style="display:inline"
       id="g8484-9-4-9"
       transform="matrix(0.99553774,0,0,0.99680134,-1908.4846,812.7725)">
      <rect
         y="-471.4082"
         x="1958.1366"
         height="311.81104"
         width="223.22835"
         id="rect6988-1-0-1"
         style="display:inline;opacity:1;fill:#ffffff;fill-opacity:1;stroke:#000000;stroke-width:1.0005666;stroke-miterlimit:4;stroke-dasharray:none;stroke-opacity:1"
         rx="10.677567"
         ry="10.664032" />
      <path
         d="m 2017.9843,-438.71333 c -9.226,13.15712 -19.0977,20.72857 -19.2617,30.99333 -0.055,3.3239 1.7421,8.97342 7.3711,10.05478 3.652,0.69833 8.6801,-2.25748 8.7851,-8.26252 -0.016,-1.19555 1.2659,-1.16448 1.2539,0.47372 -0.172,4.73672 -1.6714,10.25156 -4.1914,14.74069 4.0287,0 8.0573,0 12.086,0 -2.52,-4.48913 -4.0194,-10.00397 -4.1914,-14.74069 -0.012,-1.6382 1.2699,-1.66927 1.2539,-0.47372 0.105,6.00504 5.1331,8.96085 8.7851,8.26252 5.629,-1.08136 7.4261,-6.73088 7.3711,-10.05478 -0.164,-10.26476 -10.0357,-17.83621 -19.2617,-30.99333 z"
         id="path7018-7-4-5"
         inkscape:connector-curvature="0"
         sodipodi:nodetypes="cccccccccccc"
         style="display:inline;opacity:1" />
      <path
         d="m 1975.3538,-421.43493 c -4.3106,5.48214 -8.9228,8.6369 -8.9994,12.91389 -0.026,1.38495 0.8139,3.73892 3.4439,4.18949 1.7063,0.29097 4.0555,-0.94062 4.1046,-3.44272 -0.01,-0.49815 0.5914,-0.4852 0.5858,0.19738 -0.08,1.97364 -0.7809,4.27149 -1.9583,6.14196 1.8823,0 3.7645,0 5.6468,0 -1.1774,-1.87047 -1.878,-4.16832 -1.9583,-6.14196 -0.01,-0.68258 0.5933,-0.69553 0.5858,-0.19738 0.049,2.5021 2.3983,3.73369 4.1046,3.44272 2.63,-0.45057 3.4696,-2.80454 3.4439,-4.18949 -0.077,-4.27699 -4.6889,-7.43175 -8.9994,-12.91389 z"
         id="path7020-0-8-9"
         inkscape:connector-curvature="0"
         sodipodi:nodetypes="cccccccccccc"
         style="display:inline;opacity:1" />
      <path
         d="m 2164.1483,-209.57029 c -4.3106,-5.48214 -8.9228,-8.6369 -8.9994,-12.91389 -0.026,-1.38495 0.8139,-3.73892 3.4439,-4.18949 1.7063,-0.29097 4.0555,0.94062 4.1046,3.44272 -0.01,0.49815 0.5914,0.4852 0.5858,-0.19738 -0.08,-1.97364 -0.7809,-4.27149 -1.9583,-6.14196 1.8823,0 3.7645,0 5.6468,0 -1.1774,1.87047 -1.878,4.16832 -1.9583,6.14196 -0.01,0.68258 0.5933,0.69553 0.5858,0.19738 0.049,-2.5021 2.3983,-3.73369 4.1046,-3.44272 2.63,0.45057 3.4696,2.80454 3.4439,4.18949 -0.077,4.27699 -4.6889,7.43175 -8.9994,12.91389 z"
         id="path7024-7-1-0"
         inkscape:connector-curvature="0"
         sodipodi:nodetypes="cccccccccccc"
         style="display:inline;opacity:1" />
      <path
         style="display:inline;opacity:1"
         d="m 2121.5171,-438.71333 c -9.226,13.15712 -19.0977,20.72857 -19.2617,30.99333 -0.055,3.3239 1.7421,8.97342 7.3711,10.05478 3.652,0.69833 8.6801,-2.25748 8.7851,-8.26252 -0.016,-1.19555 1.2659,-1.16448 1.2539,0.47372 -0.172,4.73672 -1.6714,10.25156 -4.1914,14.74069 4.0287,0 8.0573,0 12.086,0 -2.52,-4.48913 -4.0194,-10.00397 -4.1914,-14.74069 -0.012,-1.6382 1.2699,-1.66927 1.2539,-0.47372 0.105,6.00504 5.1331,8.96085 8.7851,8.26252 5.629,-1.08136 7.4261,-6.73088 7.3711,-10.05478 -0.164,-10.26476 -10.0357,-17.83621 -19.2617,-30.99333 z"
         id="path7026-2-6-7"
         inkscape:connector-curvature="0"
         sodipodi:nodetypes="cccccccccccc" />
      <path
         style="display:inline;opacity:1"
         d="m 2017.9843,-339.50268 c -9.226,13.15712 -19.0977,20.72857 -19.2617,30.99333 -0.055,3.3239 1.7421,8.97342 7.3711,10.05478 3.652,0.69833 8.6801,-2.25748 8.7851,-8.26252 -0.016,-1.19555 1.2659,-1.16448 1.2539,0.47372 -0.172,4.73672 -1.6714,10.25156 -4.1914,14.74069 4.0287,0 8.0573,0 12.086,0 -2.52,-4.48913 -4.0194,-10.00397 -4.1914,-14.74069 -0.012,-1.6382 1.2699,-1.66927 1.2539,-0.47372 0.105,6.00504 5.1331,8.96085 8.7851,8.26252 5.629,-1.08136 7.4261,-6.73088 7.3711,-10.05478 -0.164,-10.26476 -10.0357,-17.83621 -19.2617,-30.99333 z"
         id="path7036-9-6-5"
         inkscape:connector-curvature="0"
         sodipodi:nodetypes="cccccccccccc" />
      <path
         style="display:inline;opacity:1"
         d="m 2017.9843,-192.29202 c -9.226,-13.15712 -19.0977,-20.72857 -19.2617,-30.99333 -0.055,-3.3239 1.7421,-8.97342 7.3711,-10.05478 3.652,-0.69833 8.6801,2.25748 8.7851,8.26252 -0.016,1.19555 1.2659,1.16448 1.2539,-0.47372 -0.172,-4.73672 -1.6714,-10.25156 -4.1914,-14.74069 4.0287,0 8.0573,0 12.086,0 -2.52,4.48913 -4.0194,10.00397 -4.1914,14.74069 -0.012,1.6382 1.2699,1.66927 1.2539,0.47372 0.105,-6.00504 5.1331,-8.96085 8.7851,-8.26252 5.629,1.08136 7.4261,6.73088 7.3711,10.05478 -0.164,10.26476 -10.0357,17.83621 -19.2617,30.99333 z"
         id="path7038-9-6-0"
         inkscape:connector-curvature="0"
         sodipodi:nodetypes="cccccccccccc" />
      <path
         style="display:inline;opacity:1"
         d="m 2121.5171,-192.29202 c -9.226,-13.15712 -19.0977,-20.72857 -19.2617,-30.99333 -0.055,-3.3239 1.7421,-8.97342 7.3711,-10.05478 3.652,-0.69833 8.6801,2.25748 8.7851,8.26252 -0.016,1.19555 1.2659,1.16448 1.2539,-0.47372 -0.172,-4.73672 -1.6714,-10.25156 -4.1914,-14.74069 4.0287,0 8.0573,0 12.086,0 -2.52,4.48913 -4.0194,10.00397 -4.1914,14.74069 -0.012,1.6382 1.2699,1.66927 1.2539,0.47372 0.105,-6.00504 5.1331,-8.96085 8.7851,-8.26252 5.629,1.08136 7.4261,6.73088 7.3711,10.05478 -0.164,10.26476 -10.0357,17.83621 -19.2617,30.99333 z"
         id="path7040-0-9-9"
         inkscape:connector-curvature="0"
         sodipodi:nodetypes="cccccccccccc" />
      <path
         style="display:inline;opacity:1"
         d="m 2121.5171,-339.50268 c -9.226,13.15712 -19.0977,20.72857 -19.2617,30.99333 -0.055,3.3239 1.7421,8.97342 7.3711,10.05478 3.652,0.69833 8.6801,-2.25748 8.7851,-8.26252 -0.016,-1.19555 1.2659,-1.16448 1.2539,0.47372 -0.172,4.73672 -1.6714,10.25156 -4.1914,14.74069 4.0287,0 8.0573,0 12.086,0 -2.52,-4.48913 -4.0194,-10.00397 -4.1914,-14.74069 -0.012,-1.6382 1.2699,-1.66927 1.2539,-0.47372 0.105,6.00504 5.1331,8.96085 8.7851,8.26252 5.629,-1.08136 7.4261,-6.73088 7.3711,-10.05478 -0.164,-10.26476 -10.0357,-17.83621 -19.2617,-30.99333 z"
         id="path7050-2-9-6"
         inkscape:connector-curvature="0"
         sodipodi:nodetypes="cccccccccccc" />
      <path
         style="opacity:1"
         inkscape:connector-curvature="0"
         id="path23-1-9-8-8"
         d="m 1965.6614,-434.72327 c -0.4063,-2.7774 -0.396,-9.9574 -0.064,-12.0814 1.0247,-6.5069 3.5099,-9.4847 7.6729,-10.4564 4.0435,-0.9467 9.7237,0.1074 10.9695,5.5458 l -3.3801,0.066 c -1.8282,-3.6771 -6.4541,-2.695 -9.0602,-1.0948 -2.0789,1.2742 -3.0188,6.5947 -2.6164,6.922 0,0 3.9317,-2.9123 7.0315,-2.6975 6.6238,0.6901 9.3559,6.4348 9.1244,11.8588 -0.2108,6.5252 -2.2795,11.7435 -9.3006,12.0906 -6.6753,-0.258 -9.7339,-3.8971 -10.3767,-10.1526 l 0,0 z m 16.4631,-1.7233 c 0.036,-4.5269 -2.0185,-7.9198 -5.9102,-8.2917 -3.8879,-0.3745 -7.8106,3.4204 -7.5393,8.035 0.2713,4.6344 2.0648,8.5327 6.7807,8.5118 5.072,-0.02 6.6444,-5.0324 6.6688,-8.2551 l 0,0 z m 0,0" />
      <path
         inkscape:connector-curvature="0"
         id="path23-1-5-6-4-1"
         d="m 2173.8378,-196.28195 c 0.4063,2.7774 0.396,9.9574 0.064,12.0814 -1.0247,6.5069 -3.5099,9.4847 -7.6729,10.4564 -4.0435,0.9467 -9.7237,-0.1074 -10.9695,-5.5458 l 3.3801,-0.066 c 1.8282,3.6771 6.4541,2.695 9.0602,1.0948 2.0789,-1.2742 3.0188,-6.5947 2.6164,-6.922 0,0 -3.9317,2.9123 -7.0315,2.6975 -6.6238,-0.6901 -9.3559,-6.4348 -9.1244,-11.8588 0.2108,-6.5252 2.2795,-11.7435 9.3006,-12.0906 6.6753,0.258 9.7339,3.8971 10.3767,10.1526 l 0,0 z m -16.4631,1.7233 c -0.036,4.5269 2.0185,7.9198 5.9102,8.2917 3.8879,0.3745 7.8106,-3.4204 7.5393,-8.035 -0.2714,-4.6344 -2.0649,-8.5327 -6.7807,-8.5118 -5.072,0.02 -6.6444,5.0324 -6.6688,8.2551 l 0,0 z m 0,0"
         style="display:inline;opacity:1" />
    </g>
  </g>
</svg>
