<?xml version="1.0" encoding="UTF-8" standalone="no"?>
<!-- Created with Inkscape (http://www.inkscape.org/) -->

<svg
   xmlns:dc="http://purl.org/dc/elements/1.1/"
   xmlns:cc="http://creativecommons.org/ns#"
   xmlns:rdf="http://www.w3.org/1999/02/22-rdf-syntax-ns#"
   xmlns:svg="http://www.w3.org/2000/svg"
   xmlns="http://www.w3.org/2000/svg"
   xmlns:sodipodi="http://sodipodi.sourceforge.net/DTD/sodipodi-0.dtd"
   xmlns:inkscape="http://www.inkscape.org/namespaces/inkscape"
   width="63mm"
   height="88mm"
   viewBox="0 0 223.22835 311.81102"
   id="svg5861"
   version="1.1"
   inkscape:version="0.91 r13725"
   sodipodi:docname="spades-A.svg">
  <defs
     id="defs5863" />
  <sodipodi:namedview
     id="base"
     pagecolor="#ffffff"
     bordercolor="#666666"
     borderopacity="1.0"
     inkscape:pageopacity="0.0"
     inkscape:pageshadow="2"
     inkscape:zoom="0.35"
     inkscape:cx="566.81498"
     inkscape:cy="54.870504"
     inkscape:document-units="px"
     inkscape:current-layer="layer1"
     showgrid="false"
     inkscape:window-width="521"
     inkscape:window-height="411"
     inkscape:window-x="914"
     inkscape:window-y="64"
     inkscape:window-maximized="0"
     fit-margin-top="0"
     fit-margin-left="0"
     fit-margin-right="0"
     fit-margin-bottom="0" />
  <metadata
     id="metadata5866">
    <rdf:RDF>
      <cc:Work
         rdf:about="">
        <dc:format>image/svg+xml</dc:format>
        <dc:type
           rdf:resource="http://purl.org/dc/dcmitype/StillImage" />
        <dc:title></dc:title>
      </cc:Work>
    </rdf:RDF>
  </metadata>
  <g
     inkscape:label="Layer 1"
     inkscape:groupmode="layer"
     id="layer1"
     transform="translate(454.05508,-275.42186)">
    <g
       style="display:inline"
       id="g8497-6-8-8"
       transform="matrix(0.99553774,0,0,0.99680134,-2726.6108,745.82087)">
      <rect
         ry="10.664032"
         rx="10.677567"
         style="display:inline;opacity:1;fill:#ffffff;fill-opacity:1;stroke:#000000;stroke-width:1.0005666;stroke-miterlimit:4;stroke-dasharray:none;stroke-opacity:1"
         id="rect7056-4-2-3"
         width="223.22835"
         height="311.81104"
         x="2283.2422"
         y="-471.4082" />
      <path
         style="display:inline;opacity:1"
         sodipodi:nodetypes="cccccccccccc"
         inkscape:connector-curvature="0"
         id="path7086-8-0-2"
         d="m 2343.0901,-438.71333 c -9.226,13.15712 -19.0977,20.72857 -19.2617,30.99333 -0.055,3.3239 1.7421,8.97342 7.3711,10.05478 3.652,0.69833 8.6801,-2.25748 8.7851,-8.26252 -0.016,-1.19555 1.2659,-1.16448 1.2539,0.47372 -0.172,4.73672 -1.6714,10.25156 -4.1914,14.74069 4.0287,0 8.0573,0 12.086,0 -2.52,-4.48913 -4.0194,-10.00397 -4.1914,-14.74069 -0.012,-1.6382 1.2699,-1.66927 1.2539,-0.47372 0.105,6.00504 5.1331,8.96085 8.7851,8.26252 5.629,-1.08136 7.4261,-6.73088 7.3711,-10.05478 -0.164,-10.26476 -10.0357,-17.83621 -19.2617,-30.99333 z" />
      <path
         style="display:inline;opacity:1"
         sodipodi:nodetypes="cccccccccccc"
         inkscape:connector-curvature="0"
         id="path7088-9-3-6"
         d="m 2300.4596,-421.43493 c -4.3106,5.48214 -8.9228,8.6369 -8.9994,12.91389 -0.026,1.38495 0.8139,3.73892 3.4439,4.18949 1.7063,0.29097 4.0555,-0.94062 4.1046,-3.44272 -0.01,-0.49815 0.5914,-0.4852 0.5858,0.19738 -0.08,1.97364 -0.7809,4.27149 -1.9583,6.14196 1.8823,0 3.7645,0 5.6468,0 -1.1774,-1.87047 -1.878,-4.16832 -1.9583,-6.14196 -0.01,-0.68258 0.5933,-0.69553 0.5858,-0.19738 0.049,2.5021 2.3983,3.73369 4.1046,3.44272 2.63,-0.45057 3.4696,-2.80454 3.4439,-4.18949 -0.077,-4.27699 -4.6889,-7.43175 -8.9994,-12.91389 z" />
      <path
         style="display:inline;opacity:1"
         sodipodi:nodetypes="cccccccccccc"
         inkscape:connector-curvature="0"
         id="path7092-7-0-9"
         d="m 2489.2541,-209.57029 c -4.3106,-5.48214 -8.9228,-8.6369 -8.9994,-12.91389 -0.026,-1.38495 0.8139,-3.73892 3.4439,-4.18949 1.7063,-0.29097 4.0555,0.94062 4.1046,3.44272 -0.01,0.49815 0.5914,0.4852 0.5858,-0.19738 -0.08,-1.97364 -0.7809,-4.27149 -1.9583,-6.14196 1.8823,0 3.7645,0 5.6468,0 -1.1774,1.87047 -1.878,4.16832 -1.9583,6.14196 -0.01,0.68258 0.5933,0.69553 0.5858,0.19738 0.049,-2.5021 2.3983,-3.73369 4.1046,-3.44272 2.63,0.45057 3.4696,2.80454 3.4439,4.18949 -0.077,4.27699 -4.6889,7.43175 -8.9994,12.91389 z" />
      <path
         sodipodi:nodetypes="cccccccccccc"
         inkscape:connector-curvature="0"
         id="path7094-3-5-1"
         d="m 2446.6229,-438.71333 c -9.226,13.15712 -19.0977,20.72857 -19.2617,30.99333 -0.055,3.3239 1.7421,8.97342 7.3711,10.05478 3.652,0.69833 8.6801,-2.25748 8.7851,-8.26252 -0.016,-1.19555 1.2659,-1.16448 1.2539,0.47372 -0.172,4.73672 -1.6714,10.25156 -4.1914,14.74069 4.0287,0 8.0573,0 12.086,0 -2.52,-4.48913 -4.0194,-10.00397 -4.1914,-14.74069 -0.012,-1.6382 1.2699,-1.66927 1.2539,-0.47372 0.105,6.00504 5.1331,8.96085 8.7851,8.26252 5.629,-1.08136 7.4261,-6.73088 7.3711,-10.05478 -0.164,-10.26476 -10.0357,-17.83621 -19.2617,-30.99333 z"
         style="display:inline;opacity:1" />
      <path
         sodipodi:nodetypes="cccccccccccc"
         inkscape:connector-curvature="0"
         id="path7098-7-3-2"
         d="m 2394.8565,-389.10806 c -9.226,13.15712 -19.0977,20.72857 -19.2617,30.99333 -0.055,3.3239 1.7421,8.97342 7.3711,10.05478 3.652,0.69833 8.6801,-2.25748 8.7851,-8.26252 -0.016,-1.19555 1.2659,-1.16448 1.2539,0.47372 -0.172,4.73672 -1.6714,10.25156 -4.1914,14.74069 4.0287,0 8.0573,0 12.086,0 -2.52,-4.48913 -4.0194,-10.00397 -4.1914,-14.74069 -0.012,-1.6382 1.2699,-1.66927 1.2539,-0.47372 0.105,6.00504 5.1331,8.96085 8.7851,8.26252 5.629,-1.08136 7.4261,-6.73088 7.3711,-10.05478 -0.164,-10.26476 -10.0357,-17.83621 -19.2617,-30.99333 z"
         style="display:inline;opacity:1" />
      <path
         sodipodi:nodetypes="cccccccccccc"
         inkscape:connector-curvature="0"
         id="path7105-0-7-8"
         d="m 2343.0901,-339.50268 c -9.226,13.15712 -19.0977,20.72857 -19.2617,30.99333 -0.055,3.3239 1.7421,8.97342 7.3711,10.05478 3.652,0.69833 8.6801,-2.25748 8.7851,-8.26252 -0.016,-1.19555 1.2659,-1.16448 1.2539,0.47372 -0.172,4.73672 -1.6714,10.25156 -4.1914,14.74069 4.0287,0 8.0573,0 12.086,0 -2.52,-4.48913 -4.0194,-10.00397 -4.1914,-14.74069 -0.012,-1.6382 1.2699,-1.66927 1.2539,-0.47372 0.105,6.00504 5.1331,8.96085 8.7851,8.26252 5.629,-1.08136 7.4261,-6.73088 7.3711,-10.05478 -0.164,-10.26476 -10.0357,-17.83621 -19.2617,-30.99333 z"
         style="display:inline;opacity:1" />
      <path
         sodipodi:nodetypes="cccccccccccc"
         inkscape:connector-curvature="0"
         id="path7107-6-3-1"
         d="m 2343.0901,-192.29202 c -9.226,-13.15712 -19.0977,-20.72857 -19.2617,-30.99333 -0.055,-3.3239 1.7421,-8.97342 7.3711,-10.05478 3.652,-0.69833 8.6801,2.25748 8.7851,8.26252 -0.016,1.19555 1.2659,1.16448 1.2539,-0.47372 -0.172,-4.73672 -1.6714,-10.25156 -4.1914,-14.74069 4.0287,0 8.0573,0 12.086,0 -2.52,4.48913 -4.0194,10.00397 -4.1914,14.74069 -0.012,1.6382 1.2699,1.66927 1.2539,0.47372 0.105,-6.00504 5.1331,-8.96085 8.7851,-8.26252 5.629,1.08136 7.4261,6.73088 7.3711,10.05478 -0.164,10.26476 -10.0357,17.83621 -19.2617,30.99333 z"
         style="display:inline;opacity:1" />
      <path
         sodipodi:nodetypes="cccccccccccc"
         inkscape:connector-curvature="0"
         id="path7109-5-0-7"
         d="m 2446.6229,-192.29202 c -9.226,-13.15712 -19.0977,-20.72857 -19.2617,-30.99333 -0.055,-3.3239 1.7421,-8.97342 7.3711,-10.05478 3.652,-0.69833 8.6801,2.25748 8.7851,8.26252 -0.016,1.19555 1.2659,1.16448 1.2539,-0.47372 -0.172,-4.73672 -1.6714,-10.25156 -4.1914,-14.74069 4.0287,0 8.0573,0 12.086,0 -2.52,4.48913 -4.0194,10.00397 -4.1914,14.74069 -0.012,1.6382 1.2699,1.66927 1.2539,0.47372 0.105,-6.00504 5.1331,-8.96085 8.7851,-8.26252 5.629,1.08136 7.4261,6.73088 7.3711,10.05478 -0.164,10.26476 -10.0357,17.83621 -19.2617,30.99333 z"
         style="display:inline;opacity:1" />
      <path
         sodipodi:nodetypes="cccccccccccc"
         inkscape:connector-curvature="0"
         id="path7119-1-9-7"
         d="m 2446.6229,-339.50268 c -9.226,13.15712 -19.0977,20.72857 -19.2617,30.99333 -0.055,3.3239 1.7421,8.97342 7.3711,10.05478 3.652,0.69833 8.6801,-2.25748 8.7851,-8.26252 -0.016,-1.19555 1.2659,-1.16448 1.2539,0.47372 -0.172,4.73672 -1.6714,10.25156 -4.1914,14.74069 4.0287,0 8.0573,0 12.086,0 -2.52,-4.48913 -4.0194,-10.00397 -4.1914,-14.74069 -0.012,-1.6382 1.2699,-1.66927 1.2539,-0.47372 0.105,6.00504 5.1331,8.96085 8.7851,8.26252 5.629,-1.08136 7.4261,-6.73088 7.3711,-10.05478 -0.164,-10.26476 -10.0357,-17.83621 -19.2617,-30.99333 z"
         style="display:inline;opacity:1" />
      <path
         style="opacity:1"
         inkscape:connector-curvature="0"
         id="path25-4-6-4-7"
         d="m 2295.3854,-424.57404 c 2.1703,-11.4733 4.4806,-20.0867 10.5465,-29.4348 l -12.3297,0 0,4.0239 -3.2734,0 0,-7.5855 18.0343,0 2.2243,3.5616 c -6.4426,7.033 -12.3388,29.7673 -11.2948,29.4348 l -3.9072,0 z m 0,0" />
      <path
         inkscape:connector-curvature="0"
         id="path25-4-1-9-1-2"
         d="m 2494.3253,-206.43118 c -2.1703,11.4733 -4.4807,20.0867 -10.5465,29.4348 l 12.3297,0 0,-4.0239 3.2734,0 0,7.5855 -18.0343,0 -2.2243,-3.5616 c 6.4426,-7.033 12.3388,-29.7673 11.2947,-29.4348 l 3.9073,0 z m 0,0"
         style="display:inline;opacity:1" />
    </g>
  </g>
</svg>
