<?xml version="1.0" encoding="UTF-8" standalone="no"?>
<!-- Created with Inkscape (http://www.inkscape.org/) -->

<svg
   xmlns:dc="http://purl.org/dc/elements/1.1/"
   xmlns:cc="http://creativecommons.org/ns#"
   xmlns:rdf="http://www.w3.org/1999/02/22-rdf-syntax-ns#"
   xmlns:svg="http://www.w3.org/2000/svg"
   xmlns="http://www.w3.org/2000/svg"
   xmlns:sodipodi="http://sodipodi.sourceforge.net/DTD/sodipodi-0.dtd"
   xmlns:inkscape="http://www.inkscape.org/namespaces/inkscape"
   width="63mm"
   height="88mm"
   viewBox="0 0 223.22835 311.81102"
   id="svg5861"
   version="1.1"
   inkscape:version="0.91 r13725"
   sodipodi:docname="hearts-A.svg">
  <defs
     id="defs5863" />
  <sodipodi:namedview
     id="base"
     pagecolor="#ffffff"
     bordercolor="#666666"
     borderopacity="1.0"
     inkscape:pageopacity="0.0"
     inkscape:pageshadow="2"
     inkscape:zoom="0.35"
     inkscape:cx="740.74239"
     inkscape:cy="586.47914"
     inkscape:document-units="px"
     inkscape:current-layer="layer1"
     showgrid="false"
     inkscape:window-width="1366"
     inkscape:window-height="705"
     inkscape:window-x="-4"
     inkscape:window-y="-4"
     inkscape:window-maximized="1"
     fit-margin-top="0"
     fit-margin-left="0"
     fit-margin-right="0"
     fit-margin-bottom="0" />
  <metadata
     id="metadata5866">
    <rdf:RDF>
      <cc:Work
         rdf:about="">
        <dc:format>image/svg+xml</dc:format>
        <dc:type
           rdf:resource="http://purl.org/dc/dcmitype/StillImage" />
        <dc:title></dc:title>
      </cc:Work>
    </rdf:RDF>
  </metadata>
  <g
     inkscape:label="Layer 1"
     inkscape:groupmode="layer"
     id="layer1"
     transform="translate(365.74236,-807.03046)">
    <g
       style="display:inline"
       id="g11270-7-7-6"
       transform="matrix(0.99553774,0,0,0.99680134,-2225.5227,1868.1258)">
      <g
         transform="translate(1608.1836,-1434.2756)"
         id="g10004-9-9-3"
         inkscape:label="5D"
         style="display:inline;opacity:1">
        <rect
           y="370.27557"
           x="260.43304"
           height="311.81104"
           width="223.22835"
           id="rect10006-6-1-4"
           style="display:inline;fill:#ffffff;fill-opacity:1;stroke:#000000;stroke-width:1.0005666;stroke-miterlimit:4;stroke-dasharray:none;stroke-opacity:1"
           rx="10.677567"
           ry="10.664032" />
      </g>
      <g
         id="g10024-8-8-8"
         style="display:inline;opacity:1"
         transform="translate(1868.6166,-1064)" />
      <g
         transform="translate(1895.2082,-1083.9055)"
         id="g10030-0-6-9"
         style="display:inline;opacity:1" />
      <path
         id="path10038-5-0-6"
         d="m -95.396892,-140.12123 c 0,0 -2.2247,-3.18978 -5.225698,-6.9401 -2.0077,-2.50969 -3.6127,-5.22722 -3.762,-7.56795 -0.1711,-2.67388 1.449,-5.35641 4.3821,-5.48643 2.931398,-0.12993 4.121198,2.06168 4.605598,3.86859 0.4844,-1.80691 1.6743,-3.99852 4.6056,-3.86859 2.9331,0.13002 4.5533,2.81255 4.3821,5.48643 -0.1492,2.34073 -1.7543,5.05826 -3.7619,7.56795 -3.0011,3.75032 -5.2258,6.9401 -5.2258,6.9401 z"
         style="display:inline;opacity:1;fill:#d40000"
         inkscape:connector-curvature="0"
         transform="translate(1981.2308,-853.90551)"
         sodipodi:nodetypes="cccscsccc" />
      <path
         id="path10040-7-6-3"
         d="m 93.397604,31.743411 c 0,0 -2.2247,3.18978 -5.2257,6.9401 -2.0077,2.50969 -3.6127,5.22722 -3.762,7.56795 -0.1711,2.67388 1.449,5.35641 4.3821,5.48643 2.9314,0.12993 4.1212,-2.06168 4.6056,-3.86859 0.4844,1.80691 1.6743,3.99852 4.6056,3.86859 2.933096,-0.13002 4.553296,-2.81255 4.382096,-5.48643 -0.1492,-2.34073 -1.7543,-5.05826 -3.761896,-7.56795 -3.0011,-3.75032 -5.2258,-6.9401 -5.2258,-6.9401 z"
         style="display:inline;opacity:1;fill:#d40000"
         inkscape:connector-curvature="0"
         transform="translate(1981.2308,-853.90551)"
         sodipodi:nodetypes="cccscsccc" />
      <path
         inkscape:connector-curvature="0"
         style="display:inline;opacity:1;fill:#d40000"
         d="m -52.766444,-129.39963 c 0,0 -4.6663,-7.65547 -10.9609,-16.65626 -4.211,-6.02326 -7.5776,-12.54533 -7.8906,-18.16309 -0.359,-6.41731 3.0392,-12.85538 9.1914,-13.16741 6.1485,-0.31185 8.6442,4.94803 9.6601,9.28461 1.016,-4.33658 3.5117,-9.59646 9.6602,-9.28461 6.1522,0.31203 9.5504,6.7501 9.1914,13.16741 -0.313,5.61776 -3.6796,12.13983 -7.8906,18.16309 -6.2946,9.00079 -10.961,16.65626 -10.961,16.65626 z"
         id="path10046-1-1-2"
         transform="translate(1981.2308,-853.90551)"
         sodipodi:nodetypes="cccscsccc" />
      <path
         inkscape:connector-curvature="0"
         style="display:inline;opacity:1;fill:#d40000"
         d="m 50.766354,-30.188979 c 0,0 -4.6663,-7.65547 -10.9609,-16.65626 -4.211,-6.02326 -7.5776,-12.54533 -7.8906,-18.16309 -0.359,-6.41731 3.0392,-12.85538 9.1914,-13.16741 6.1485,-0.31185 8.6442,4.94803 9.6601,9.28461 1.016,-4.33658 3.5117,-9.59646 9.6602,-9.28461 6.1522,0.31203 9.5504,6.7501 9.1914,13.16741 -0.313,5.61776 -3.6796,12.13983 -7.8906,18.16309 -6.2946,9.00079 -10.961,16.65626 -10.961,16.65626 z"
         id="path10048-2-0-9"
         transform="translate(1981.2308,-853.90551)"
         sodipodi:nodetypes="cccscsccc" />
      <path
         inkscape:connector-curvature="0"
         style="display:inline;opacity:1;fill:#d40000"
         d="m 50.766354,-129.39963 c 0,0 -4.6663,-7.65547 -10.9609,-16.65626 -4.211,-6.02326 -7.5776,-12.54533 -7.8906,-18.16309 -0.359,-6.41731 3.0392,-12.85538 9.1914,-13.16741 6.1485,-0.31185 8.6442,4.94803 9.6601,9.28461 1.016,-4.33658 3.5117,-9.59646 9.6602,-9.28461 6.1522,0.31203 9.5504,6.7501 9.1914,13.16741 -0.313,5.61776 -3.6796,12.13983 -7.8906,18.16309 -6.2946,9.00079 -10.961,16.65626 -10.961,16.65626 z"
         id="path10052-3-1-4"
         transform="translate(1981.2308,-853.90551)"
         sodipodi:nodetypes="cccscsccc" />
      <path
         inkscape:connector-curvature="0"
         style="display:inline;opacity:1;fill:#d40000"
         d="m -52.766444,-30.188979 c 0,0 -4.6663,-7.65547 -10.9609,-16.65625 -4.211,-6.02326 -7.5776,-12.54533 -7.8906,-18.16309 -0.359,-6.41731 3.0392,-12.85538 9.1914,-13.16741 6.1485,-0.31185 8.6442,4.94803 9.6601,9.28461 1.016,-4.33658 3.5117,-9.59646 9.6602,-9.28461 6.1522,0.31203 9.5504,6.7501 9.1914,13.16741 -0.313,5.61776 -3.6796,12.13983 -7.8906,18.16309 -6.2946,9.00078 -10.961,16.65625 -10.961,16.65625 z"
         id="path10056-4-2-5"
         transform="translate(1981.2308,-853.90551)"
         sodipodi:nodetypes="cccscsccc" />
      <path
         id="path10066-9-2-3"
         d="m 50.766354,21.021681 c 0,0 -4.6663,7.65547 -10.9609,16.65626 -4.211,6.02326 -7.5776,12.54533 -7.8906,18.16309 -0.359,6.41731 3.0392,12.85538 9.1914,13.16741 6.1485,0.31185 8.6442,-4.94803 9.6601,-9.28461 1.016,4.33658 3.5117,9.59646 9.6602,9.28461 6.1522,-0.31203 9.5504,-6.7501 9.1914,-13.16741 -0.313,-5.61776 -3.6796,-12.13983 -7.8906,-18.16309 -6.2946,-9.00079 -10.961,-16.65626 -10.961,-16.65626 z"
         style="display:inline;opacity:1;fill:#d40000"
         inkscape:connector-curvature="0"
         transform="translate(1981.2308,-853.90551)"
         sodipodi:nodetypes="cccscsccc" />
      <path
         inkscape:connector-curvature="0"
         style="display:inline;opacity:1;fill:#d40000;stroke:none;stroke-opacity:1"
         d="m -52.766444,21.021681 c 0,0 -4.6663,7.65547 -10.9609,16.65626 -4.211,6.02326 -7.5776,12.54533 -7.8906,18.16309 -0.359,6.41731 3.0392,12.85538 9.1914,13.16741 6.1485,0.31185 8.6442,-4.94803 9.6601,-9.28461 1.016,4.33658 3.5117,9.59646 9.6602,9.28461 6.1522,-0.31203 9.5504,-6.7501 9.1914,-13.16741 -0.313,-5.61776 -3.6796,-12.13983 -7.8906,-18.16309 -6.2946,-9.00079 -10.961,-16.65626 -10.961,-16.65626 z"
         id="path10068-1-2-6"
         transform="translate(1981.2308,-853.90551)"
         sodipodi:nodetypes="cccscsccc" />
      <path
         style="opacity:1;fill:#d40000;fill-opacity:1;stroke-width:1;stroke-miterlimit:4;stroke-dasharray:none"
         inkscape:connector-curvature="0"
         id="path23-5-2-7-3-3"
         d="m 1876.1415,-1027.3145 c -0.4063,-2.7775 -0.396,-9.9575 -0.064,-12.0815 1.0247,-6.5069 3.5099,-9.4846 7.6729,-10.4563 4.0435,-0.9468 9.7237,0.1074 10.9695,5.5457 l -3.3801,0.065 c -1.8282,-3.677 -6.4541,-2.6949 -9.0602,-1.0947 -2.0789,1.2741 -3.0188,6.5946 -2.6164,6.922 0,0 3.9317,-2.9123 7.0315,-2.6976 6.6238,0.6901 9.3559,6.4349 9.1244,11.8588 -0.2108,6.5253 -2.2795,11.7436 -9.3006,12.0906 -6.6753,-0.258 -9.7339,-3.8971 -10.3767,-10.1525 l 0,0 z m 16.4631,-1.7233 c 0.036,-4.527 -2.0185,-7.9199 -5.9102,-8.2918 -3.8879,-0.3745 -7.8106,3.4204 -7.5393,8.0351 0.2713,4.6343 2.0648,8.5327 6.7807,8.5117 5.072,-0.02 6.6444,-5.0324 6.6688,-8.255 l 0,0 z m 0,0" />
      <path
         style="opacity:1;fill:#d40000;fill-opacity:1"
         inkscape:connector-curvature="0"
         id="path23-6-5-1-7-1-1"
         d="m 2084.318,-788.87433 c 0.4063,2.7775 0.3959,9.9575 0.064,12.0815 -1.0247,6.5069 -3.5099,9.4846 -7.673,10.4563 -4.0435,0.9468 -9.7237,-0.1074 -10.9695,-5.5457 l 3.3801,-0.065 c 1.8283,3.677 6.4542,2.6949 9.0603,1.0947 2.0789,-1.2741 3.0187,-6.5946 2.6163,-6.922 0,0 -3.9317,2.9123 -7.0315,2.6976 -6.6237,-0.6901 -9.3559,-6.4349 -9.1244,-11.8588 0.2108,-6.5253 2.2795,-11.7436 9.3006,-12.0906 6.6754,0.258 9.7339,3.8971 10.3768,10.1525 l 0,0 z m -16.4632,1.7233 c -0.036,4.527 2.0185,7.9199 5.9103,8.2918 3.8878,0.3745 7.8105,-3.4204 7.5392,-8.0351 -0.2712,-4.6343 -2.0647,-8.5327 -6.7806,-8.5117 -5.072,0.02 -6.6444,5.0324 -6.6689,8.255 l 0,0 z m 0,0" />
    </g>
  </g>
</svg>
