<?xml version="1.0" encoding="UTF-8" standalone="no"?>
<!-- Created with Inkscape (http://www.inkscape.org/) -->

<svg
   xmlns:dc="http://purl.org/dc/elements/1.1/"
   xmlns:cc="http://creativecommons.org/ns#"
   xmlns:rdf="http://www.w3.org/1999/02/22-rdf-syntax-ns#"
   xmlns:svg="http://www.w3.org/2000/svg"
   xmlns="http://www.w3.org/2000/svg"
   xmlns:sodipodi="http://sodipodi.sourceforge.net/DTD/sodipodi-0.dtd"
   xmlns:inkscape="http://www.inkscape.org/namespaces/inkscape"
   width="63mm"
   height="88mm"
   viewBox="0 0 223.22835 311.81102"
   id="svg5861"
   version="1.1"
   inkscape:version="0.91 r13725"
   sodipodi:docname="hearts-A.svg">
  <defs
     id="defs5863" />
  <sodipodi:namedview
     id="base"
     pagecolor="#ffffff"
     bordercolor="#666666"
     borderopacity="1.0"
     inkscape:pageopacity="0.0"
     inkscape:pageshadow="2"
     inkscape:zoom="0.35"
     inkscape:cx="720.92795"
     inkscape:cy="653.81327"
     inkscape:document-units="px"
     inkscape:current-layer="layer1"
     showgrid="false"
     inkscape:window-width="1366"
     inkscape:window-height="705"
     inkscape:window-x="-4"
     inkscape:window-y="-4"
     inkscape:window-maximized="1"
     fit-margin-top="0"
     fit-margin-left="0"
     fit-margin-right="0"
     fit-margin-bottom="0" />
  <metadata
     id="metadata5866">
    <rdf:RDF>
      <cc:Work
         rdf:about="">
        <dc:format>image/svg+xml</dc:format>
        <dc:type
           rdf:resource="http://purl.org/dc/dcmitype/StillImage" />
        <dc:title></dc:title>
      </cc:Work>
    </rdf:RDF>
  </metadata>
  <g
     inkscape:label="Layer 1"
     inkscape:groupmode="layer"
     id="layer1"
     transform="translate(345.92791,-874.36458)">
    <g
       style="display:inline"
       id="g11234-8-5-3"
       transform="matrix(0.99553774,0,0,0.99680134,-2490.2788,1935.4599)">
      <rect
         ry="10.664032"
         rx="10.677567"
         style="display:inline;opacity:1;fill:#ffffff;fill-opacity:1;stroke:#000000;stroke-width:1.0005666;stroke-miterlimit:4;stroke-dasharray:none;stroke-opacity:1"
         id="rect10074-2-8-6"
         width="223.22835"
         height="311.81104"
         x="-112.61419"
         y="-210.0945"
         transform="translate(2267.0769,-853.90551)" />
      <g
         id="g10092-4-5-4"
         style="display:inline;opacity:1"
         transform="translate(2154.4627,-1064)" />
      <g
         transform="translate(2181.0543,-1083.9055)"
         id="g10098-2-4-9"
         style="display:inline;opacity:1" />
      <path
         id="path10106-2-3-8"
         d="m -95.396892,-140.12123 c 0,0 -2.2247,-3.18978 -5.225698,-6.9401 -2.0077,-2.50969 -3.6127,-5.22722 -3.762,-7.56795 -0.1711,-2.67388 1.449,-5.35641 4.3821,-5.48643 2.931398,-0.12993 4.121198,2.06168 4.605598,3.86859 0.4844,-1.80691 1.6743,-3.99852 4.6056,-3.86859 2.9331,0.13002 4.5533,2.81255 4.3821,5.48643 -0.1492,2.34073 -1.7543,5.05826 -3.7619,7.56795 -3.0011,3.75032 -5.2258,6.9401 -5.2258,6.9401 z"
         style="display:inline;opacity:1;fill:#d40000"
         inkscape:connector-curvature="0"
         transform="translate(2267.0769,-853.90551)"
         sodipodi:nodetypes="cccscsccc" />
      <path
         id="path10108-3-1-8"
         d="m 93.397604,31.743411 c 0,0 -2.2247,3.18978 -5.2257,6.9401 -2.0077,2.50969 -3.6127,5.22722 -3.762,7.56795 -0.1711,2.67388 1.449,5.35641 4.3821,5.48643 2.9314,0.12993 4.1212,-2.06168 4.6056,-3.86859 0.4844,1.80691 1.6743,3.99852 4.6056,3.86859 2.933096,-0.13002 4.553296,-2.81255 4.382096,-5.48643 -0.1492,-2.34073 -1.7543,-5.05826 -3.761896,-7.56795 -3.0011,-3.75032 -5.2258,-6.9401 -5.2258,-6.9401 z"
         style="display:inline;opacity:1;fill:#d40000;stroke:none;stroke-opacity:1"
         inkscape:connector-curvature="0"
         transform="translate(2267.0769,-853.90551)"
         sodipodi:nodetypes="cccscsccc" />
      <path
         inkscape:connector-curvature="0"
         style="display:inline;opacity:1;fill:#d40000"
         d="m -1.000051,-79.794356 c 0,0 -4.6663,-7.655471 -10.9609,-16.65626 -4.211,-6.023264 -7.5776,-12.545334 -7.8906,-18.163094 -0.359,-6.41731 3.0392,-12.85538 9.1914,-13.16741 6.1485,-0.31185 8.6442,4.94803 9.6601,9.28461 1.01600005,-4.33658 3.5117,-9.59646 9.6602,-9.28461 6.1522,0.31203 9.5504,6.7501 9.1914,13.16741 -0.313,5.61776 -3.6796,12.13983 -7.8906,18.163094 -6.2946,9.000789 -10.961,16.65626 -10.961,16.65626 z"
         id="path10110-3-5-4"
         transform="translate(2267.0769,-853.90551)"
         sodipodi:nodetypes="cccscsccc" />
      <path
         inkscape:connector-curvature="0"
         style="display:inline;opacity:1;fill:#d40000;stroke:none;stroke-opacity:1"
         d="m -52.766444,-129.39963 c 0,0 -4.6663,-7.65547 -10.9609,-16.65626 -4.211,-6.02326 -7.5776,-12.54533 -7.8906,-18.16309 -0.359,-6.41731 3.0392,-12.85538 9.1914,-13.16741 6.1485,-0.31185 8.6442,4.94803 9.6601,9.28461 1.016,-4.33658 3.5117,-9.59646 9.6602,-9.28461 6.1522,0.31203 9.5504,6.7501 9.1914,13.16741 -0.313,5.61776 -3.6796,12.13983 -7.8906,18.16309 -6.2946,9.00079 -10.961,16.65626 -10.961,16.65626 z"
         id="path10114-8-3-9"
         transform="translate(2267.0769,-853.90551)"
         sodipodi:nodetypes="cccscsccc" />
      <path
         inkscape:connector-curvature="0"
         style="display:inline;opacity:1;fill:#d40000"
         d="m 50.766354,-30.188979 c 0,0 -4.6663,-7.65547 -10.9609,-16.65626 -4.211,-6.02326 -7.5776,-12.54533 -7.8906,-18.16309 -0.359,-6.41731 3.0392,-12.85538 9.1914,-13.16741 6.1485,-0.31185 8.6442,4.94803 9.6601,9.28461 1.016,-4.33658 3.5117,-9.59646 9.6602,-9.28461 6.1522,0.31203 9.5504,6.7501 9.1914,13.16741 -0.313,5.61776 -3.6796,12.13983 -7.8906,18.16309 -6.2946,9.00079 -10.961,16.65626 -10.961,16.65626 z"
         id="path10116-2-5-8"
         transform="translate(2267.0769,-853.90551)"
         sodipodi:nodetypes="cccscsccc" />
      <path
         inkscape:connector-curvature="0"
         style="display:inline;opacity:1;fill:#d40000"
         d="m 50.766354,-129.39963 c 0,0 -4.6663,-7.65547 -10.9609,-16.65626 -4.211,-6.02326 -7.5776,-12.54533 -7.8906,-18.16309 -0.359,-6.41731 3.0392,-12.85538 9.1914,-13.16741 6.1485,-0.31185 8.6442,4.94803 9.6601,9.28461 1.016,-4.33658 3.5117,-9.59646 9.6602,-9.28461 6.1522,0.31203 9.5504,6.7501 9.1914,13.16741 -0.313,5.61776 -3.6796,12.13983 -7.8906,18.16309 -6.2946,9.00079 -10.961,16.65626 -10.961,16.65626 z"
         id="path10120-6-5-0"
         transform="translate(2267.0769,-853.90551)"
         sodipodi:nodetypes="cccscsccc" />
      <path
         inkscape:connector-curvature="0"
         style="display:inline;opacity:1;fill:#d40000"
         d="m -52.766444,-30.188979 c 0,0 -4.6663,-7.65547 -10.9609,-16.65625 -4.211,-6.02326 -7.5776,-12.54533 -7.8906,-18.16309 -0.359,-6.41731 3.0392,-12.85538 9.1914,-13.16741 6.1485,-0.31185 8.6442,4.94803 9.6601,9.28461 1.016,-4.33658 3.5117,-9.59646 9.6602,-9.28461 6.1522,0.31203 9.5504,6.7501 9.1914,13.16741 -0.313,5.61776 -3.6796,12.13983 -7.8906,18.16309 -6.2946,9.00078 -10.961,16.65625 -10.961,16.65625 z"
         id="path10124-1-1-4"
         transform="translate(2267.0769,-853.90551)"
         sodipodi:nodetypes="cccscsccc" />
      <path
         id="path10134-7-3-0"
         d="m 50.766354,21.021681 c 0,0 -4.6663,7.65547 -10.9609,16.65626 -4.211,6.02326 -7.5776,12.54533 -7.8906,18.16309 -0.359,6.41731 3.0392,12.85538 9.1914,13.16741 6.1485,0.31185 8.6442,-4.94803 9.6601,-9.28461 1.016,4.33658 3.5117,9.59646 9.6602,9.28461 6.1522,-0.31203 9.5504,-6.7501 9.1914,-13.16741 -0.313,-5.61776 -3.6796,-12.13983 -7.8906,-18.16309 -6.2946,-9.00079 -10.961,-16.65626 -10.961,-16.65626 z"
         style="display:inline;opacity:1;fill:#d40000;stroke:none;stroke-opacity:1"
         inkscape:connector-curvature="0"
         transform="translate(2267.0769,-853.90551)"
         sodipodi:nodetypes="cccscsccc" />
      <path
         inkscape:connector-curvature="0"
         style="display:inline;opacity:1;fill:#d40000;stroke:none;stroke-opacity:1"
         d="m -52.766444,21.021681 c 0,0 -4.6663,7.65547 -10.9609,16.65626 -4.211,6.02326 -7.5776,12.54533 -7.8906,18.16309 -0.359,6.41731 3.0392,12.85538 9.1914,13.16741 6.1485,0.31185 8.6442,-4.94803 9.6601,-9.28461 1.016,4.33658 3.5117,9.59646 9.6602,9.28461 6.1522,-0.31203 9.5504,-6.7501 9.1914,-13.16741 -0.313,-5.61776 -3.6796,-12.13983 -7.8906,-18.16309 -6.2946,-9.00079 -10.961,-16.65626 -10.961,-16.65626 z"
         id="path10136-5-7-7"
         transform="translate(2267.0769,-853.90551)"
         sodipodi:nodetypes="cccscsccc" />
      <path
         style="opacity:1;fill:#d40000;fill-opacity:1;stroke-width:1;stroke-miterlimit:4;stroke-dasharray:none"
         inkscape:connector-curvature="0"
         id="path25-43-2-3-9-8"
         d="m 2166.6059,-1017.1659 c 2.1703,-11.4733 4.4806,-20.0867 10.5465,-29.4347 l -12.3297,0 0,4.0238 -3.2734,0 0,-7.5855 18.0343,0 2.2243,3.5617 c -6.4426,7.0329 -12.3388,29.7673 -11.2948,29.4347 l -3.9072,0 z m 0,0" />
      <path
         style="opacity:1;fill:#d40000;fill-opacity:1"
         inkscape:connector-curvature="0"
         id="path25-7-0-2-8-2-6"
         d="m 2365.5458,-799.02298 c -2.1703,11.4732 -4.4806,20.0867 -10.5465,29.4347 l 12.3297,0 0,-4.0239 3.2734,0 0,7.5856 -18.0343,0 -2.2243,-3.5617 c 6.4426,-7.0329 12.3388,-29.7673 11.2948,-29.4347 l 3.9072,0 z m 0,0" />
    </g>
  </g>
</svg>
