<?xml version="1.0" encoding="iso-8859-1"?>
<!-- Generator: Adobe Illustrator 19.0.0, SVG Export Plug-In . SVG Version: 6.00 Build 0)  -->
<svg version="1.1" id="Layer_1" xmlns="http://www.w3.org/2000/svg" xmlns:xlink="http://www.w3.org/1999/xlink" x="0px" y="0px"
	 viewBox="0 0 512 512" style="enable-background:new 0 0 512 512;" xml:space="preserve">
<g>
	<path style="fill:#E6EEF4;" d="M423.724,0H88.276c-9.754,0-17.655,7.901-17.655,17.655v476.69c0,9.754,7.901,17.655,17.655,17.655
		h335.448c9.754,0,17.655-7.901,17.655-17.655V17.655C441.379,7.901,433.479,0,423.724,0"/>
	<g>
		<path style="fill:#D71E00;" d="M256,238.345c9.507-24.214,29.625-44.138,54.881-44.138c21.257,0,40.201,9.993,52.966,26.483
			c16.013,20.692,27.33,66.754-7.715,101.8C338.353,340.268,256,423.724,256,423.724s-82.353-83.456-100.131-101.235
			c-35.046-35.046-23.729-81.108-7.715-101.8c12.765-16.49,31.709-26.483,52.966-26.483
			C226.375,194.207,246.493,214.131,256,238.345"/>
		<path style="fill:#D71E00;" d="M123.587,97.103c19.503,0,35.31-15.808,35.31-35.31s-15.808-35.31-35.31-35.31
			c-4.058,0-8.024,0.686-11.778,2.017c-5.252,1.849-9.826,5.02-14.202,9.396c-3.447,3.447-3.447,9.037,0,12.484
			c3.447,3.447,9.037,3.447,12.484,0c2.652-2.652,5.113-4.358,7.6-5.234c1.883-0.668,3.854-1.008,5.896-1.008
			c9.752,0,17.655,7.903,17.655,17.655s-7.903,17.655-17.655,17.655h-8.801c-4.875,0-8.828,3.952-8.828,8.828
			c0,4.875,3.952,8.828,8.828,8.828H123.587z"/>
		<path style="fill:#D71E00;" d="M123.589,150.067c19.503,0,35.31-15.808,35.31-35.31s-15.808-35.31-35.31-35.31h-8.828
			c-4.875,0-8.828,3.952-8.828,8.828c0,4.875,3.952,8.828,8.828,8.828h8.828c9.752,0,17.655,7.903,17.655,17.655
			s-7.903,17.655-17.655,17.655c-4.808,0-9.446-2.183-13.47-6.207c-3.447-3.447-9.037-3.447-12.484,0
			c-3.447,3.447-3.447,9.037,0,12.484C104.785,145.84,113.768,150.067,123.589,150.067z"/>
	</g>
</g>
<g>
</g>
<g>
</g>
<g>
</g>
<g>
</g>
<g>
</g>
<g>
</g>
<g>
</g>
<g>
</g>
<g>
</g>
<g>
</g>
<g>
</g>
<g>
</g>
<g>
</g>
<g>
</g>
<g>
</g>
</svg>
