<?xml version="1.0" encoding="iso-8859-1"?>
<!-- Generator: Adobe Illustrator 19.0.0, SVG Export Plug-In . SVG Version: 6.00 Build 0)  -->
<svg version="1.1" id="Layer_1" xmlns="http://www.w3.org/2000/svg" xmlns:xlink="http://www.w3.org/1999/xlink" x="0px" y="0px"
	 viewBox="0 0 512 512" style="enable-background:new 0 0 512 512;" xml:space="preserve">
<g>
	<path style="fill:#E6EEF4;" d="M423.724,0H88.276c-9.754,0-17.655,7.901-17.655,17.655v476.69c0,9.754,7.901,17.655,17.655,17.655
		h335.448c9.754,0,17.655-7.901,17.655-17.655V17.655C441.379,7.901,433.479,0,423.724,0"/>
	<g>
		<path style="fill:#D71E00;" d="M150.069,44.138c4.875,0,8.828-3.952,8.828-8.828s-3.952-8.828-8.828-8.828h-44.138
			c-4.875,0-8.828,3.952-8.828,8.828s3.952,8.828,8.828,8.828H150.069z"/>
		<path style="fill:#D71E00;" d="M97.103,79.448c0,4.875,3.952,8.828,8.828,8.828c4.875,0,8.828-3.952,8.828-8.828V35.31
			c0-4.875-3.952-8.828-8.828-8.828c-4.875,0-8.828,3.952-8.828,8.828V79.448z"/>
		<path style="fill:#D71E00;" d="M126.535,134.376c20.041,0,36.29-16.249,36.29-36.29s-16.249-36.29-36.29-36.29
			c-10.545,0-20.385,4.533-27.223,12.283c-3.226,3.656-2.877,9.234,0.779,12.46c3.656,3.226,9.234,2.877,12.46-0.779
			c3.519-3.988,8.556-6.308,13.984-6.308c10.29,0,18.635,8.345,18.635,18.635s-8.345,18.635-18.635,18.635
			c-5.423,0-10.461-2.324-13.984-6.317c-3.226-3.656-8.804-4.004-12.46-0.779c-3.656,3.226-4.004,8.804-0.779,12.46
			C106.151,129.836,115.992,134.376,126.535,134.376z"/>
		<path style="fill:#D71E00;" d="M256,238.345c9.507-24.214,29.625-44.138,54.881-44.138c21.257,0,40.201,9.993,52.966,26.483
			c16.013,20.692,27.33,66.754-7.715,101.8C338.353,340.268,256,423.724,256,423.724s-82.353-83.456-100.131-101.235
			c-35.046-35.046-23.729-81.108-7.715-101.8c12.765-16.49,31.709-26.483,52.966-26.483
			C226.375,194.207,246.493,214.131,256,238.345"/>
	</g>
</g>
<g>
</g>
<g>
</g>
<g>
</g>
<g>
</g>
<g>
</g>
<g>
</g>
<g>
</g>
<g>
</g>
<g>
</g>
<g>
</g>
<g>
</g>
<g>
</g>
<g>
</g>
<g>
</g>
<g>
</g>
</svg>
