<?xml version="1.0" encoding="iso-8859-1"?>
<!-- Generator: Adobe Illustrator 19.0.0, SVG Export Plug-In . SVG Version: 6.00 Build 0)  -->
<svg version="1.1" id="Layer_1" xmlns="http://www.w3.org/2000/svg" xmlns:xlink="http://www.w3.org/1999/xlink" x="0px" y="0px"
	 viewBox="0 0 512 512" style="enable-background:new 0 0 512 512;" xml:space="preserve">
<g>
	<path style="fill:#E6EEF4;" d="M423.724,0H88.276c-9.754,0-17.655,7.901-17.655,17.655v476.69c0,9.754,7.901,17.655,17.655,17.655
		h335.448c9.754,0,17.655-7.901,17.655-17.655V17.655C441.379,7.901,433.479,0,423.724,0"/>
	<g>
		<path style="fill:#D71E00;" d="M256,238.345c9.507-24.214,29.625-44.138,54.881-44.138c21.257,0,40.201,9.993,52.966,26.483
			c16.013,20.692,27.33,66.754-7.715,101.8C338.353,340.268,256,423.724,256,423.724s-82.353-83.456-100.131-101.235
			c-35.046-35.046-23.729-81.108-7.715-101.8c12.765-16.49,31.709-26.483,52.966-26.483
			C226.375,194.207,246.493,214.131,256,238.345"/>
		<path style="fill:#D71E00;" d="M132.416,150.071c19.441,0,35.31-15.869,35.31-35.31V61.795c0-4.875-3.952-8.828-8.828-8.828
			s-8.828,3.952-8.828,8.828v52.966c0,9.69-7.965,17.655-17.655,17.655c-7.497,0-14.177-4.821-16.662-11.83
			c-1.629-4.595-6.675-7-11.27-5.371s-7,6.675-5.371,11.27C104.074,140.475,117.371,150.071,132.416,150.071z"/>
		<path style="fill:#D71E00;" d="M132.414,26.483c-19.503,0-35.31,15.808-35.31,35.31s15.808,35.31,35.31,35.31
			s35.31-15.808,35.31-35.31S151.916,26.483,132.414,26.483z M132.414,79.448c-9.752,0-17.655-7.903-17.655-17.655
			s7.903-17.655,17.655-17.655s17.655,7.903,17.655,17.655S142.166,79.448,132.414,79.448z"/>
	</g>
</g>
<g>
</g>
<g>
</g>
<g>
</g>
<g>
</g>
<g>
</g>
<g>
</g>
<g>
</g>
<g>
</g>
<g>
</g>
<g>
</g>
<g>
</g>
<g>
</g>
<g>
</g>
<g>
</g>
<g>
</g>
</svg>
