<?xml version="1.0" encoding="iso-8859-1"?>
<!-- Generator: Adobe Illustrator 19.0.0, SVG Export Plug-In . SVG Version: 6.00 Build 0)  -->
<svg version="1.1" id="Layer_1" xmlns="http://www.w3.org/2000/svg" xmlns:xlink="http://www.w3.org/1999/xlink" x="0px" y="0px"
	 viewBox="0 0 512 512" style="enable-background:new 0 0 512 512;" xml:space="preserve">
<g>
	<path style="fill:#E6EEF4;" d="M423.724,0H88.276c-9.754,0-17.655,7.901-17.655,17.655v476.69c0,9.754,7.901,17.655,17.655,17.655
		h335.448c9.754,0,17.655-7.901,17.655-17.655V17.655C441.379,7.901,433.479,0,423.724,0"/>
	<g>
		<path d="M282.482,370.759c0,21.91,6.047,43.82,8.13,50.732c0.344,1.139-0.521,2.233-1.704,2.233h-65.827
			c-1.183,0-2.039-1.095-1.704-2.225c2.074-6.947,8.139-29.096,8.139-50.741c-8.722,6.321-18.803,9.578-29.917,9.578
			c-32.274,0-60.275-27.101-58.253-59.78c1.13-18.379,12.835-34.145,28.425-43.926c15.651-9.825,30.164-10.611,43.14-7.459
			c-8.298-9.825-13.312-22.502-13.312-36.361c0-34.834,31.576-62.296,67.663-55.314c22.59,4.361,40.545,22.925,44.332,45.612
			c2.948,17.602-2.304,33.986-12.5,46.062c13.065-3.169,27.692-2.348,43.467,7.662c15.519,9.852,27.18,25.582,28.248,43.926
			c1.889,32.591-26.2,59.577-58.403,59.577C301.444,380.337,291.045,376.947,282.482,370.759"/>
		<path d="M123.587,97.103c19.503,0,35.31-15.808,35.31-35.31s-15.808-35.31-35.31-35.31c-4.058,0-8.024,0.686-11.778,2.017
			c-5.252,1.849-9.826,5.02-14.202,9.396c-3.447,3.447-3.447,9.037,0,12.484c3.447,3.447,9.037,3.447,12.484,0
			c2.652-2.652,5.113-4.358,7.6-5.234c1.883-0.668,3.854-1.008,5.896-1.008c9.752,0,17.655,7.903,17.655,17.655
			s-7.903,17.655-17.655,17.655h-8.801c-4.875,0-8.828,3.952-8.828,8.828c0,4.875,3.952,8.828,8.828,8.828H123.587z"/>
		<path d="M123.589,150.067c19.503,0,35.31-15.808,35.31-35.31s-15.808-35.31-35.31-35.31h-8.828c-4.875,0-8.828,3.952-8.828,8.828
			c0,4.875,3.952,8.828,8.828,8.828h8.828c9.752,0,17.655,7.903,17.655,17.655s-7.903,17.655-17.655,17.655
			c-4.808,0-9.446-2.183-13.47-6.207c-3.447-3.447-9.037-3.447-12.484,0c-3.447,3.447-3.447,9.037,0,12.484
			C104.785,145.84,113.768,150.067,123.589,150.067z"/>
	</g>
</g>
<g>
</g>
<g>
</g>
<g>
</g>
<g>
</g>
<g>
</g>
<g>
</g>
<g>
</g>
<g>
</g>
<g>
</g>
<g>
</g>
<g>
</g>
<g>
</g>
<g>
</g>
<g>
</g>
<g>
</g>
</svg>
