<?xml version="1.0" encoding="iso-8859-1"?>
<!-- Generator: Adobe Illustrator 19.0.0, SVG Export Plug-In . SVG Version: 6.00 Build 0)  -->
<svg version="1.1" id="Layer_1" xmlns="http://www.w3.org/2000/svg" xmlns:xlink="http://www.w3.org/1999/xlink" x="0px" y="0px"
	 viewBox="0 0 512 512" style="enable-background:new 0 0 512 512;" xml:space="preserve">
<g>
	<path style="fill:#E6EEF4;" d="M423.724,0H88.276c-9.754,0-17.655,7.901-17.655,17.655v476.69c0,9.754,7.901,17.655,17.655,17.655
		h335.448c9.754,0,17.655-7.901,17.655-17.655V17.655C441.379,7.901,433.479,0,423.724,0"/>
	<g>
		<path d="M282.483,370.759c0,21.91,6.038,43.82,8.13,50.732c0.344,1.139-0.521,2.233-1.704,2.233h-65.827
			c-1.183,0-2.039-1.095-1.704-2.225c2.074-6.947,8.139-29.096,8.139-50.741c-8.73,6.321-18.803,9.578-29.917,9.578
			c-32.274,0-60.275-27.101-58.253-59.78c1.13-18.379,12.835-34.145,28.425-43.926c15.651-9.825,30.164-10.611,43.14-7.459
			c-8.298-9.825-13.312-22.502-13.312-36.361c0-34.834,31.576-62.296,67.663-55.314c22.59,4.361,40.536,22.925,44.332,45.612
			c2.948,17.602-2.304,33.986-12.5,46.062c13.065-3.169,27.692-2.348,43.467,7.662c15.519,9.852,27.18,25.582,28.248,43.926
			c1.889,32.591-26.2,59.577-58.403,59.577C301.444,380.337,291.046,376.947,282.483,370.759"/>
		<path d="M158.897,44.138c4.875,0,8.828-3.952,8.828-8.828s-3.952-8.828-8.828-8.828h-52.966c-4.875,0-8.828,3.952-8.828,8.828
			s3.952,8.828,8.828,8.828H158.897z"/>
		<path d="M114.759,35.31c0-4.875-3.952-8.828-8.828-8.828c-4.875,0-8.828,3.952-8.828,8.828v8.828c0,4.875,3.952,8.828,8.828,8.828
			c4.875,0,8.828-3.952,8.828-8.828V35.31z"/>
		<path d="M114.881,122.122c-0.809,4.808,2.433,9.361,7.241,10.17s9.361-2.433,10.17-7.241
			c6.146-36.533,13.104-53.566,33.951-84.845c2.704-4.057,1.607-9.538-2.45-12.241s-9.538-1.607-12.241,2.45
			C129.358,63.714,121.451,83.07,114.881,122.122z"/>
	</g>
</g>
<g>
</g>
<g>
</g>
<g>
</g>
<g>
</g>
<g>
</g>
<g>
</g>
<g>
</g>
<g>
</g>
<g>
</g>
<g>
</g>
<g>
</g>
<g>
</g>
<g>
</g>
<g>
</g>
<g>
</g>
</svg>
