<?xml version="1.0" encoding="iso-8859-1"?>
<!-- Generator: Adobe Illustrator 19.0.0, SVG Export Plug-In . SVG Version: 6.00 Build 0)  -->
<svg version="1.1" id="Layer_1" xmlns="http://www.w3.org/2000/svg" xmlns:xlink="http://www.w3.org/1999/xlink" x="0px" y="0px"
	 viewBox="0 0 512 512" style="enable-background:new 0 0 512 512;" xml:space="preserve">
<g>
	<path style="fill:#E6EEF4;" d="M423.724,0H88.276c-9.754,0-17.655,7.901-17.655,17.655v476.69c0,9.754,7.901,17.655,17.655,17.655
		h335.448c9.754,0,17.655-7.901,17.655-17.655V17.655C441.379,7.901,433.479,0,423.724,0"/>
	<g>
		<path d="M282.482,370.759c0,21.91,6.047,43.82,8.13,50.732c0.344,1.139-0.521,2.233-1.704,2.233h-65.827
			c-1.183,0-2.039-1.095-1.704-2.225c2.074-6.947,8.139-29.096,8.139-50.741c-8.722,6.321-18.803,9.578-29.917,9.578
			c-32.274,0-60.275-27.101-58.253-59.78c1.13-18.379,12.835-34.145,28.425-43.926c15.651-9.825,30.164-10.611,43.14-7.459
			c-8.298-9.825-13.312-22.502-13.312-36.361c0-34.834,31.576-62.296,67.663-55.314c22.59,4.361,40.545,22.925,44.332,45.612
			c2.948,17.602-2.304,33.986-12.5,46.062c13.065-3.169,27.692-2.348,43.467,7.662c15.519,9.852,27.18,25.582,28.248,43.926
			c1.889,32.591-26.2,59.577-58.403,59.577C301.444,380.337,291.045,376.947,282.482,370.759"/>
		<path d="M150.069,44.138c4.875,0,8.828-3.952,8.828-8.828s-3.952-8.828-8.828-8.828h-44.138c-4.875,0-8.828,3.952-8.828,8.828
			s3.952,8.828,8.828,8.828H150.069z"/>
		<path d="M97.103,79.448c0,4.875,3.952,8.828,8.828,8.828c4.875,0,8.828-3.952,8.828-8.828V35.31c0-4.875-3.952-8.828-8.828-8.828
			c-4.875,0-8.828,3.952-8.828,8.828V79.448z"/>
		<path d="M126.535,134.376c20.041,0,36.29-16.249,36.29-36.29s-16.249-36.29-36.29-36.29c-10.545,0-20.385,4.533-27.223,12.283
			c-3.226,3.656-2.877,9.234,0.779,12.46c3.656,3.226,9.234,2.877,12.46-0.779c3.519-3.988,8.556-6.308,13.984-6.308
			c10.29,0,18.635,8.345,18.635,18.635s-8.345,18.635-18.635,18.635c-5.428,0-10.459-2.322-13.984-6.317
			c-3.226-3.656-8.804-4.004-12.46-0.779c-3.656,3.226-4.004,8.804-0.779,12.46C106.153,129.839,115.986,134.376,126.535,134.376z"
			/>
	</g>
</g>
<g>
</g>
<g>
</g>
<g>
</g>
<g>
</g>
<g>
</g>
<g>
</g>
<g>
</g>
<g>
</g>
<g>
</g>
<g>
</g>
<g>
</g>
<g>
</g>
<g>
</g>
<g>
</g>
<g>
</g>
</svg>
