<?xml version="1.0" encoding="UTF-8" standalone="no"?>
<!-- Created with Inkscape (http://www.inkscape.org/) -->

<svg
   xmlns:dc="http://purl.org/dc/elements/1.1/"
   xmlns:cc="http://creativecommons.org/ns#"
   xmlns:rdf="http://www.w3.org/1999/02/22-rdf-syntax-ns#"
   xmlns:svg="http://www.w3.org/2000/svg"
   xmlns="http://www.w3.org/2000/svg"
   xmlns:sodipodi="http://sodipodi.sourceforge.net/DTD/sodipodi-0.dtd"
   xmlns:inkscape="http://www.inkscape.org/namespaces/inkscape"
   width="63.000008mm"
   height="88mm"
   viewBox="0 0 223.22832 311.81102"
   id="svg5690"
   version="1.1"
   inkscape:version="0.91 r13725"
   sodipodi:docname="clubs-4.svg">
  <defs
     id="defs5692" />
  <sodipodi:namedview
     id="base"
     pagecolor="#ffffff"
     bordercolor="#666666"
     borderopacity="1.0"
     inkscape:pageopacity="0.0"
     inkscape:pageshadow="2"
     inkscape:zoom="0.98994949"
     inkscape:cx="396.86222"
     inkscape:cy="220.8025"
     inkscape:document-units="px"
     inkscape:current-layer="layer1"
     showgrid="false"
     fit-margin-top="0"
     fit-margin-left="0"
     fit-margin-right="0"
     fit-margin-bottom="0"
     inkscape:window-width="1366"
     inkscape:window-height="705"
     inkscape:window-x="-4"
     inkscape:window-y="-4"
     inkscape:window-maximized="1" />
  <metadata
     id="metadata5695">
    <rdf:RDF>
      <cc:Work
         rdf:about="">
        <dc:format>image/svg+xml</dc:format>
        <dc:type
           rdf:resource="http://purl.org/dc/dcmitype/StillImage" />
        <dc:title></dc:title>
      </cc:Work>
    </rdf:RDF>
  </metadata>
  <g
     inkscape:label="Layer 1"
     inkscape:groupmode="layer"
     id="layer1"
     transform="translate(-1.8347148,-741.99767)">
    <rect
       ry="10.62992"
       rx="10.62992"
       style="display:inline;fill:#ffffff;fill-opacity:1;stroke:#000000;stroke-width:0.99673378;stroke-miterlimit:4;stroke-dasharray:none;stroke-opacity:1"
       id="rect6355-6-85-3-72-9"
       width="222.23161"
       height="310.81427"
       x="2.3330665"
       y="742.49603" />
    <path
       style="display:inline;opacity:1"
       sodipodi:nodetypes="ccccccccccccccc"
       inkscape:connector-curvature="0"
       id="path147-0-8-1-6-13-2-06-7"
       d="m 164.97999,775.50094 c -9.7745,0.2122 -14.1574,11.2172 -6.9184,19.7632 1.0499,1.2466 1.1583,1.9619 -0.7645,0.7646 -4.8739,-3.2592 -14.2193,-1.1167 -14.6978,8.8473 -0.5912,12.2769 16.5628,15.8142 19.7837,2.7596 0.17,-1.3773 1.2894,-1.3459 1.0195,0.6092 -0.2937,5.3064 -1.9508,10.266 -4.2286,15.1026 3.8391,0 8.1295,0 11.6202,0 -2.2777,-4.8366 -3.935,-9.7962 -4.2287,-15.1026 -0.2699,-1.9551 0.8495,-1.9865 1.0196,-0.6092 3.2208,13.0546 20.3747,9.5173 19.7836,-2.7596 -0.4785,-9.964 -9.824,-12.1065 -14.6977,-8.8473 -1.9228,1.1973 -1.8145,0.482 -0.7646,-0.7646 7.2389,-8.546 2.8561,-19.551 -6.9183,-19.7632 0,-10e-5 0,0 -0.01,0 z" />
    <path
       style="display:inline;opacity:1"
       inkscape:transform-center-y="0.35355339"
       inkscape:transform-center-x="-110.30866"
       sodipodi:nodetypes="ccccccccccccccc"
       inkscape:connector-curvature="0"
       id="path147-0-8-1-6-75-2-83-35-3"
       d="m 61.909494,775.50094 c -9.7745,0.2122 -14.1574,11.2172 -6.9184,19.7632 1.0499,1.2466 1.1582,1.9619 -0.7645,0.7646 -4.8739,-3.2592 -14.2193,-1.1167 -14.6979,8.8473 -0.5911,12.2769 16.5629,15.8142 19.7838,2.7596 0.17,-1.3773 1.2894,-1.3459 1.0195,0.6092 -0.2937,5.3064 -1.9509,10.266 -4.2286,15.1026 3.839,0 8.1295,0 11.6202,0 -2.2777,-4.8366 -3.935,-9.7962 -4.2287,-15.1026 -0.2699,-1.9551 0.8495,-1.9865 1.0196,-0.6092 3.2208,13.0546 20.3747,9.5173 19.7836,-2.7596 -0.4785,-9.964 -9.824,-12.1065 -14.6978,-8.8473 -1.9227,1.1973 -1.8144,0.482 -0.7646,-0.7646 7.239,-8.546 2.8561,-19.551 -6.9182,-19.7632 0,-10e-5 0,0 -0.01,0 z" />
    <path
       style="display:inline;opacity:1"
       sodipodi:nodetypes="ccccccccccccccc"
       inkscape:connector-curvature="0"
       id="path147-0-8-1-6-7-5-5-7-77-6"
       d="m 164.97999,1021.1344 c -9.7745,-0.2123 -14.1574,-11.2173 -6.9184,-19.7633 1.0499,-1.2466 1.1583,-1.96186 -0.7645,-0.7646 -4.8739,3.2592 -14.2193,1.1167 -14.6978,-8.84727 -0.5912,-12.277 16.5628,-15.8143 19.7837,-2.7597 0.17,1.3774 1.2894,1.346 1.0195,-0.6091 -0.2937,-5.3064 -1.9508,-10.2661 -4.2286,-15.1026 3.8391,0 8.1295,0 11.6202,0 -2.2777,4.8365 -3.935,9.7962 -4.2287,15.1026 -0.2699,1.9551 0.8495,1.9865 1.0196,0.6091 3.2208,-13.0546 20.3747,-9.5173 19.7836,2.7597 -0.4785,9.96397 -9.824,12.10647 -14.6977,8.84727 -1.9228,-1.19726 -1.8145,-0.482 -0.7646,0.7646 7.2389,8.546 2.8561,19.551 -6.9183,19.7633 0,0 0,-10e-5 -0.01,0 z" />
    <path
       style="display:inline;opacity:1"
       inkscape:transform-center-y="-0.35355495"
       inkscape:transform-center-x="-110.30866"
       sodipodi:nodetypes="ccccccccccccccc"
       inkscape:connector-curvature="0"
       id="path147-0-8-1-6-75-6-1-2-08-0"
       d="m 61.909494,1021.1344 c -9.7745,-0.2123 -14.1574,-11.2173 -6.9184,-19.7633 1.0499,-1.2466 1.1582,-1.96186 -0.7645,-0.7646 -4.8739,3.2592 -14.2193,1.1167 -14.6979,-8.84727 -0.5911,-12.277 16.5629,-15.8143 19.7838,-2.7597 0.17,1.3774 1.2894,1.346 1.0195,-0.6091 -0.2937,-5.3064 -1.9509,-10.2661 -4.2286,-15.1026 3.839,0 8.1295,0 11.6202,0 -2.2777,4.8365 -3.935,9.7962 -4.2287,15.1026 -0.2699,1.9551 0.8495,1.9865 1.0196,0.6091 3.2208,-13.0546 20.3747,-9.5173 19.7836,2.7597 -0.4785,9.96397 -9.824,12.10647 -14.6978,8.84727 -1.9227,-1.19726 -1.8144,-0.482 -0.7646,0.7646 7.239,8.546 2.8561,19.551 -6.9182,19.7633 0,0 0,-10e-5 -0.01,0 z" />
    <path
       style="display:inline;opacity:1"
       sodipodi:nodetypes="ccccccccccccccc"
       inkscape:connector-curvature="0"
       id="path147-6-9-8-7-0-5-6-17-9"
       d="m 207.42649,1003.4968 c 3.9097,-0.088 5.6629,-4.67376 2.7674,-8.23467 -0.42,-0.5194 -0.4633,-0.8174 0.3058,-0.3185 1.9495,1.358 5.6876,0.4652 5.8791,-3.6864 0.2364,-5.1154 -6.6251,-6.5893 -7.9135,-1.1499 -0.068,0.574 -0.5158,0.5609 -0.4077,-0.2538 0.1174,-2.211 0.7803,-4.2775 1.6914,-6.2927 -1.5493,0 -3.0986,0 -4.6479,0 0.9111,2.0152 1.574,4.0817 1.6914,6.2927 0.108,0.8147 -0.3397,0.8278 -0.4077,0.2538 -1.2884,-5.4394 -8.15,-3.9655 -7.9136,1.1499 0.1915,4.1516 3.9296,5.0444 5.8792,3.6864 0.7691,-0.4989 0.7258,-0.2009 0.3058,0.3185 -2.8956,3.56091 -1.1424,8.14627 2.7673,8.23467 0.001,10e-5 0,0 0,0 z" />
    <path
       style="display:inline;opacity:1"
       sodipodi:nodetypes="ccccccccccccccc"
       inkscape:connector-curvature="0"
       id="path147-6-9-8-7-4-5-62-79-3"
       d="m 19.472094,792.30954 c -3.9098,0.088 -5.6631,4.6738 -2.7674,8.2347 0.42,0.5194 0.4633,0.8174 -0.3059,0.3185 -1.9495,-1.358 -5.687699,-0.4652 -5.879101,3.6864 -0.2364,5.1154 6.625201,6.5893 7.913501,1.1499 0.068,-0.5739 0.5158,-0.5608 0.4078,0.2538 -0.1175,2.211 -0.7803,4.2775 -1.6914,6.2927 1.5492,0 3.0986,0 4.6478,0 -0.9111,-2.0152 -1.5739,-4.0817 -1.6914,-6.2927 -0.108,-0.8146 0.3398,-0.8277 0.4078,-0.2538 1.2883,5.4394 8.15,3.9655 7.9135,-1.1499 -0.1914,-4.1516 -3.9296,-5.0444 -5.8791,-3.6864 -0.7692,0.4989 -0.7259,0.2009 -0.3059,-0.3185 2.8957,-3.5609 1.1424,-8.1463 -2.7673,-8.2347 0,0 0,0 0,0 z" />
    <path
       style="opacity:1"
       inkscape:connector-curvature="0"
       id="path19-0-7-3"
       d="m 19.702494,789.18014 0,-2.9054 2.6187,0 0,-4.7926 -13.099001,0 0,-3.3817 14.174201,-21.8109 2.3154,0.012 0,21.7992 4.0101,0 0,3.3817 -4.0101,0 -0.076,4.7927 2.195,0 0,2.9092 -8.1288,0 z m 2.6187,-24.9056 -8.9992,13.8272 8.9992,0 0,-13.8272 z m 0,0" />
    <path
       style="opacity:1"
       inkscape:connector-curvature="0"
       id="path19-4-4-9-1"
       d="m 207.19319,1006.6263 0,2.9054 -2.6188,0 0,4.7927 13.0989,0 0,3.3816 -14.174,21.811 -2.3155,-0.012 0,-21.7992 -4.01,0 0,-3.3817 4.01,0 0.076,-4.7926 -2.1951,0 0,-2.9093 8.1289,0 z m -2.6188,24.9056 8.9992,-13.8272 -8.9992,0 0,13.8272 z m 0,0" />
  </g>
</svg>
