<?xml version="1.0" encoding="UTF-8" standalone="no"?>
<!-- Created with Inkscape (http://www.inkscape.org/) -->

<svg
   xmlns:dc="http://purl.org/dc/elements/1.1/"
   xmlns:cc="http://creativecommons.org/ns#"
   xmlns:rdf="http://www.w3.org/1999/02/22-rdf-syntax-ns#"
   xmlns:svg="http://www.w3.org/2000/svg"
   xmlns="http://www.w3.org/2000/svg"
   xmlns:sodipodi="http://sodipodi.sourceforge.net/DTD/sodipodi-0.dtd"
   xmlns:inkscape="http://www.inkscape.org/namespaces/inkscape"
   width="63mm"
   height="87.999992mm"
   viewBox="0 0 223.22835 311.811"
   id="svg5675"
   version="1.1"
   inkscape:version="0.91 r13725"
   sodipodi:docname="clubs-A.svg">
  <defs
     id="defs5677" />
  <sodipodi:namedview
     id="base"
     pagecolor="#ffffff"
     bordercolor="#666666"
     borderopacity="1.0"
     inkscape:pageopacity="0.0"
     inkscape:pageshadow="2"
     inkscape:zoom="0.35"
     inkscape:cx="-270.52866"
     inkscape:cy="-29.808754"
     inkscape:document-units="px"
     inkscape:current-layer="layer1"
     showgrid="false"
     inkscape:window-width="1366"
     inkscape:window-height="705"
     inkscape:window-x="-4"
     inkscape:window-y="-4"
     inkscape:window-maximized="1"
     fit-margin-top="0"
     fit-margin-left="0"
     fit-margin-right="0"
     fit-margin-bottom="0" />
  <metadata
     id="metadata5680">
    <rdf:RDF>
      <cc:Work
         rdf:about="">
        <dc:format>image/svg+xml</dc:format>
        <dc:type
           rdf:resource="http://purl.org/dc/dcmitype/StillImage" />
        <dc:title></dc:title>
      </cc:Work>
    </rdf:RDF>
  </metadata>
  <g
     inkscape:label="Layer 1"
     inkscape:groupmode="layer"
     id="layer1"
     transform="translate(-105.52866,-190.74245)">
    <rect
       ry="10.629919"
       rx="10.62992"
       style="display:inline;fill:#ffffff;fill-opacity:1;stroke:#000000;stroke-width:0.99673247;stroke-miterlimit:4;stroke-dasharray:none;stroke-opacity:1"
       id="rect6355-6-85-9-3-2"
       width="222.23161"
       height="310.81427"
       x="106.02702"
       y="191.24081" />
    <path
       d="m 217.13869,323.13914 c -9.77446,0.21226 -14.15738,11.21729 -6.91837,19.76333 1.04991,1.24653 1.15822,1.96187 -0.76456,0.76452 -4.87384,-3.2592 -14.21922,-1.11662 -14.69777,8.8473 -0.59115,12.27697 16.5628,15.8143 19.78365,2.75967 0.17004,-1.37736 1.28941,-1.34593 1.01952,0.60916 -0.29367,5.30642 -1.95082,10.26608 -4.22861,15.10256 3.83907,0 8.12953,0 11.62016,0 -2.27768,-4.83648 -3.93494,-9.79614 -4.22862,-15.10256 -0.26989,-1.95509 0.84949,-1.98652 1.01953,-0.60916 3.22085,13.05463 20.3748,9.5173 19.78365,-2.75967 -0.47845,-9.96392 -9.82393,-12.1065 -14.69777,-8.8473 -1.92277,1.19735 -1.81446,0.48201 -0.76456,-0.76452 7.23902,-8.54604 2.85609,-19.55106 -6.91828,-19.76333 0,-6e-5 0,5e-5 -0.01,0 z"
       id="path147-0-8-1-6-1-1-0-9-1-8"
       inkscape:connector-curvature="0"
       sodipodi:nodetypes="ccccccccccccccc"
       style="display:inline;opacity:1" />
    <path
       d="m 311.12038,452.24167 c 3.90977,-0.0884 5.66301,-4.67388 2.7674,-8.23472 -0.42002,-0.51939 -0.46333,-0.81746 0.30583,-0.31856 1.94955,1.358 5.68768,0.46526 5.87912,-3.68638 0.23644,-5.1154 -6.62518,-6.58928 -7.91351,-1.14986 -0.0677,0.57391 -0.51578,0.56081 -0.40777,-0.25381 0.11748,-2.21102 0.78031,-4.27754 1.69142,-6.29273 -1.54925,0 -3.0986,0 -4.64786,0 0.91112,2.01519 1.57395,4.08171 1.69142,6.29273 0.10802,0.81462 -0.33977,0.82772 -0.40777,0.25381 -1.28832,-5.43942 -8.14995,-3.96554 -7.91351,1.14986 0.19144,4.15164 3.92958,5.04438 5.87913,3.68638 0.76915,-0.4989 0.72585,-0.20083 0.30583,0.31856 -2.89561,3.56084 -1.14237,8.14626 2.76728,8.23472 10e-4,2e-5 0,-2e-5 0,0 z"
       id="path147-6-9-8-7-0-5-0-8-3"
       inkscape:connector-curvature="0"
       sodipodi:nodetypes="ccccccccccccccc"
       style="display:inline;opacity:1" />
    <path
       d="m 113.11901,237.92882 0,-2.81271 2.68028,0 5.70979,-30.08176 3.24982,0 6.28968,30.08176 2.1644,0 0,2.81271 -7.37511,0 0,-2.81271 1.99037,0 -0.79484,-4.60991 -7.44032,0 -0.57473,4.60991 1.99027,0 0,2.81271 -7.88961,0 z m 13.27954,-10.70642 -3.23449,-16.10074 -3.02962,16.10074 6.26411,0 z m 0,0"
       id="path41-6-3-5-1"
       inkscape:connector-curvature="0"
       style="display:inline;opacity:1" />
    <path
       d="m 301.07051,455.36716 0,2.81267 2.68028,0 5.70979,30.08184 3.24982,0 6.28969,-30.08184 2.1644,0 0,-2.81267 -7.37512,0 0,2.81267 1.99037,0 -0.79484,4.6099 -7.44033,0 -0.57471,-4.6099 1.99026,0 0,-2.81267 -7.88961,0 z m 13.27955,10.7064 -3.23451,16.10075 -3.02961,-16.10075 6.26412,0 z m 0,0"
       id="path41-6-4-0-2-8"
       inkscape:connector-curvature="0"
       style="display:inline;opacity:1" />
    <path
       d="m 123.16599,241.05432 c -3.90976,0.088 -5.663,4.67381 -2.76739,8.23472 0.42001,0.5194 0.46332,0.8174 -0.30583,0.3185 -1.94955,-1.358 -5.68768,-0.4652 -5.87912,3.68641 -0.23644,5.11541 6.62517,6.58931 7.9135,1.1499 0.0677,-0.5739 0.51579,-0.5608 0.40777,0.2538 -0.11747,2.211 -0.7803,4.27751 -1.69142,6.29271 1.54926,0 3.0986,0 4.64786,0 -0.91112,-2.0152 -1.57395,-4.08171 -1.69142,-6.29271 -0.10801,-0.8146 0.33978,-0.8277 0.40777,-0.2538 1.28833,5.43941 8.14995,3.96551 7.91351,-1.1499 -0.19144,-4.15161 -3.92957,-5.04441 -5.87913,-3.68641 -0.76915,0.4989 -0.72584,0.2009 -0.30582,-0.3185 2.89561,-3.56091 1.14237,-8.14632 -2.76729,-8.23472 -0.001,0 0,0 0,0 z"
       id="path147-6-9-8-7-4-5-6-8-9"
       inkscape:connector-curvature="0"
       sodipodi:nodetypes="ccccccccccccccc"
       style="display:inline;opacity:1" />
  </g>
</svg>
