<?xml version="1.0" encoding="UTF-8" standalone="no"?>
<!-- Created with Inkscape (http://www.inkscape.org/) -->

<svg
   xmlns:dc="http://purl.org/dc/elements/1.1/"
   xmlns:cc="http://creativecommons.org/ns#"
   xmlns:rdf="http://www.w3.org/1999/02/22-rdf-syntax-ns#"
   xmlns:svg="http://www.w3.org/2000/svg"
   xmlns="http://www.w3.org/2000/svg"
   xmlns:sodipodi="http://sodipodi.sourceforge.net/DTD/sodipodi-0.dtd"
   xmlns:inkscape="http://www.inkscape.org/namespaces/inkscape"
   width="63mm"
   height="88mm"
   viewBox="0 0 223.22835 311.81102"
   id="svg5763"
   version="1.1"
   inkscape:version="0.91 r13725"
   sodipodi:docname="clubs-2.svg">
  <defs
     id="defs5765" />
  <sodipodi:namedview
     id="base"
     pagecolor="#ffffff"
     bordercolor="#666666"
     borderopacity="1.0"
     inkscape:pageopacity="0.0"
     inkscape:pageshadow="2"
     inkscape:zoom="0.35"
     inkscape:cx="192.3285"
     inkscape:cy="87.334024"
     inkscape:document-units="px"
     inkscape:current-layer="layer1"
     showgrid="false"
     fit-margin-top="0"
     fit-margin-left="0"
     fit-margin-right="0"
     fit-margin-bottom="0"
     inkscape:window-width="1366"
     inkscape:window-height="705"
     inkscape:window-x="-4"
     inkscape:window-y="-4"
     inkscape:window-maximized="1" />
  <metadata
     id="metadata5768">
    <rdf:RDF>
      <cc:Work
         rdf:about="">
        <dc:format>image/svg+xml</dc:format>
        <dc:type
           rdf:resource="http://purl.org/dc/dcmitype/StillImage" />
        <dc:title></dc:title>
      </cc:Work>
    </rdf:RDF>
  </metadata>
  <g
     inkscape:label="Layer 1"
     inkscape:groupmode="layer"
     id="layer1"
     transform="translate(-182.6715,-307.8852)">
    <g
       id="g5421"
       transform="translate(-544.58901,1396.7534)">
      <g
         transform="matrix(0.99553774,0,0,0.99680134,468.48764,-1457.4607)"
         inkscape:label="5D"
         id="layer1-33-1-8-0-7">
        <rect
           ry="10.664032"
           rx="10.677567"
           style="display:inline;fill:#ffffff;fill-opacity:1;stroke:#000000;stroke-width:1.0005666;stroke-miterlimit:4;stroke-dasharray:none;stroke-opacity:1"
           id="rect6355-6-85-4-0-5"
           width="223.22835"
           height="311.81104"
           x="260.43304"
           y="370.27557" />
      </g>
      <path
         style="display:inline;opacity:1"
         sodipodi:nodetypes="ccccccccccccccc"
         inkscape:connector-curvature="0"
         id="path147-0-8-1-6-7-2-1-6-3"
         d="m 838.87056,-1055.3647 c -9.77449,0.2122 -14.15744,11.2173 -6.91839,19.7633 1.04989,1.2465 1.15822,1.9619 -0.76458,0.7645 -4.87384,-3.2592 -14.21924,-1.1166 -14.69781,8.8473 -0.59114,12.2769 16.56286,15.8143 19.78372,2.7597 0.17004,-1.3774 1.28941,-1.346 1.01952,0.6091 -0.29368,5.3064 -1.95085,10.2661 -4.22863,15.1025 3.83908,0 8.12954,0 11.6202,0 -2.27768,-4.8364 -3.93495,-9.7961 -4.22864,-15.1025 -0.2699,-1.9551 0.84949,-1.9865 1.01953,-0.6091 3.22086,13.0546 20.37487,9.5172 19.78372,-2.7597 -0.47846,-9.9639 -9.82396,-12.1065 -14.69781,-8.8473 -1.92279,1.1974 -1.81448,0.482 -0.76458,-0.7645 7.23906,-8.546 2.8561,-19.551 -6.9183,-19.7633 0,-10e-5 0,0 -0.01,0 z" />
      <path
         style="display:inline;opacity:1"
         sodipodi:nodetypes="ccccccccccccccc"
         inkscape:connector-curvature="0"
         id="path147-0-8-1-6-1-4-5-4-2"
         d="m 838.87056,-809.73166 c -9.77448,-0.21226 -14.15744,-11.21726 -6.91838,-19.76328 1.0499,-1.24653 1.15822,-1.96187 -0.76458,-0.76453 -4.87385,3.2592 -14.21926,1.11663 -14.69782,-8.84728 -0.59115,-12.27694 16.56287,-15.81426 19.78373,-2.75966 0.17004,1.37736 1.28941,1.34593 1.01952,-0.60917 -0.29368,-5.30641 -1.95084,-10.26605 -4.22863,-15.10252 3.83908,0 8.12955,0 11.6202,0 -2.27768,4.83647 -3.93495,9.79611 -4.22864,15.10252 -0.26989,1.9551 0.84949,1.98653 1.01953,0.60917 3.22086,-13.0546 20.37487,-9.51728 19.78372,2.75966 -0.47846,9.96391 -9.82396,12.10648 -14.69781,8.84728 -1.92279,-1.19734 -1.81447,-0.482 -0.76458,0.76453 7.23906,8.54602 2.8561,19.55101 -6.91829,19.76328 0,6e-5 0,-5e-5 -0.01,0 z" />
      <path
         style="display:inline;opacity:1"
         sodipodi:nodetypes="ccccccccccccccc"
         inkscape:connector-curvature="0"
         id="path147-6-9-8-7-0-5-4-9-1"
         d="m 932.85252,-827.36914 c 3.90977,-0.0884 5.66301,-4.67386 2.76739,-8.2347 -0.42002,-0.51939 -0.46332,-0.81745 0.30583,-0.31855 1.94956,1.358 5.68771,0.46525 5.87915,-3.68638 0.23644,-5.11539 -6.6252,-6.58927 -7.91353,-1.14986 -0.0677,0.57391 -0.51579,0.56082 -0.40777,-0.25381 0.11747,-2.21101 0.7803,-4.27752 1.69142,-6.29272 -1.54926,0 -3.09862,0 -4.64787,0 0.91112,2.0152 1.57394,4.08171 1.69142,6.29272 0.10801,0.81463 -0.33978,0.82772 -0.40777,0.25381 -1.28833,-5.43941 -8.14997,-3.96553 -7.91353,1.14986 0.19144,4.15163 3.92958,5.04438 5.87914,3.68638 0.76916,-0.4989 0.72585,-0.20084 0.30583,0.31855 -2.89562,3.56084 -1.14238,8.14624 2.7673,8.2347 9.9e-4,2e-5 0,-2e-5 0,0 z" />
      <path
         style="display:inline;opacity:1"
         sodipodi:nodetypes="ccccccccccccccc"
         inkscape:connector-curvature="0"
         id="path147-6-9-8-7-4-5-9-2-7"
         d="m 744.89758,-1038.5561 c -3.90978,0.088 -5.66302,4.6739 -2.7674,8.2347 0.42002,0.5194 0.46333,0.8175 -0.30583,0.3186 -1.94956,-1.358 -5.68769,-0.4653 -5.87913,3.6863 -0.23644,5.1154 6.62519,6.5893 7.91352,1.1499 0.0677,-0.5739 0.51578,-0.5608 0.40777,0.2538 -0.11748,2.211 -0.7803,4.2775 -1.69142,6.2927 1.54925,0 3.09861,0 4.64787,0 -0.91112,-2.0152 -1.57395,-4.0817 -1.69142,-6.2927 -0.10802,-0.8146 0.33977,-0.8277 0.40777,-0.2538 1.28833,5.4394 8.14997,3.9655 7.91353,-1.1499 -0.19144,-4.1516 -3.92959,-5.0443 -5.87915,-3.6863 -0.76915,0.4989 -0.72585,0.2008 -0.30583,-0.3186 2.89562,-3.5608 1.14238,-8.1462 -2.76729,-8.2347 -10e-4,0 0,0 0,0 z" />
      <path
         style="opacity:1"
         inkscape:connector-curvature="0"
         id="path15-9-1-0-1"
         d="m 735.04977,-1041.7521 0.16008,-2.0284 c 0.50554,-6.2682 1.85071,-8.3828 9.48051,-14.9264 3.70419,-3.1719 4.91885,-4.737 5.08909,-6.5527 0.48512,-4.2827 -3.29971,-5.6194 -5.76486,-5.639 -3.19478,-0.029 -6.80938,1.9175 -5.08402,6.4418 l -3.58513,1.0743 c -0.72057,-4.2202 0.0209,-8.1792 3.37528,-9.9361 4.47982,-2.2909 10.22417,-1.3928 13.12457,2.2164 1.94936,2.4214 2.39476,5.7721 1.34905,8.3945 -3.0552,6.6989 -13.41895,9.6463 -14.27402,17.3973 l 11.45426,0 0,-4.3153 3.37527,0 0,7.9441 -18.70008,-0.07 z m 0,0" />
      <path
         style="opacity:1"
         inkscape:connector-curvature="0"
         id="path15-5-7-4-9-4"
         d="m 942.19967,-824.17315 -0.16008,2.02849 c -0.50554,6.26809 -1.85071,8.3827 -9.48051,14.92631 -3.7042,3.17192 -4.91885,4.737 -5.08909,6.55277 -0.48512,4.28276 3.29971,5.61937 5.76486,5.639 3.19478,0.0289 6.80938,-1.91754 5.08401,-6.44182 l 3.58513,-1.07426 c 0.72058,4.22006 -0.0209,8.17916 -3.37527,9.93612 -4.47982,2.29085 -10.22417,1.39273 -13.12457,-2.21649 -1.94936,-2.42133 -2.39476,-5.77208 -1.34905,-8.39446 3.0552,-6.69891 13.41895,-9.64635 14.27402,-17.39738 l -11.45426,0 0,4.31546 -3.37527,0 0,-7.94421 18.70008,0.0708 z m 0,0" />
    </g>
  </g>
</svg>
