<?xml version="1.0" encoding="UTF-8" standalone="no"?>
<!-- Created with Inkscape (http://www.inkscape.org/) -->

<svg
   xmlns:dc="http://purl.org/dc/elements/1.1/"
   xmlns:cc="http://creativecommons.org/ns#"
   xmlns:rdf="http://www.w3.org/1999/02/22-rdf-syntax-ns#"
   xmlns:svg="http://www.w3.org/2000/svg"
   xmlns="http://www.w3.org/2000/svg"
   xmlns:sodipodi="http://sodipodi.sourceforge.net/DTD/sodipodi-0.dtd"
   xmlns:inkscape="http://www.inkscape.org/namespaces/inkscape"
   width="63mm"
   height="88mm"
   viewBox="0 0 223.22835 311.81102"
   id="svg5861"
   version="1.1"
   inkscape:version="0.91 r13725"
   sodipodi:docname="clubs-7.svg">
  <defs
     id="defs5863" />
  <sodipodi:namedview
     id="base"
     pagecolor="#ffffff"
     bordercolor="#666666"
     borderopacity="1.0"
     inkscape:pageopacity="0.0"
     inkscape:pageshadow="2"
     inkscape:zoom="0.35"
     inkscape:cx="204.49939"
     inkscape:cy="428.09905"
     inkscape:document-units="px"
     inkscape:current-layer="layer1"
     showgrid="false"
     inkscape:window-width="1366"
     inkscape:window-height="705"
     inkscape:window-x="-4"
     inkscape:window-y="-4"
     inkscape:window-maximized="1"
     fit-margin-top="0"
     fit-margin-left="0"
     fit-margin-right="0"
     fit-margin-bottom="0" />
  <metadata
     id="metadata5866">
    <rdf:RDF>
      <cc:Work
         rdf:about="">
        <dc:format>image/svg+xml</dc:format>
        <dc:type
           rdf:resource="http://purl.org/dc/dcmitype/StillImage" />
        <dc:title></dc:title>
      </cc:Work>
    </rdf:RDF>
  </metadata>
  <g
     inkscape:label="Layer 1"
     inkscape:groupmode="layer"
     id="layer1"
     transform="translate(-170.50061,-648.65034)">
    <g
       id="g5526"
       transform="matrix(0.99999725,0,0,1.0000021,-2670.5523,1737.5205)">
      <rect
         y="-1088.3695"
         x="2841.5591"
         height="310.81366"
         width="222.23224"
         id="rect6355-6-85-3-6-8-7"
         style="display:inline;opacity:1;fill:#ffffff;fill-opacity:1;stroke:#000000;stroke-width:0.99673378;stroke-miterlimit:4;stroke-dasharray:none;stroke-opacity:1"
         rx="10.62995"
         ry="10.629899" />
      <path
         d="m 3004.2066,-1055.3648 c -9.7745,0.2123 -14.1574,11.2173 -6.9184,19.7633 1.0499,1.2466 1.1582,1.9619 -0.7646,0.7646 -4.8738,-3.2592 -14.2192,-1.1167 -14.6978,8.8472 -0.5911,12.277 16.5629,15.8143 19.7837,2.7597 0.1701,-1.3774 1.2895,-1.3459 1.0196,0.6092 -0.2937,5.3064 -1.9509,10.266 -4.2287,15.1025 3.8391,0 8.1296,0 11.6202,0 -2.2777,-4.8365 -3.9349,-9.7961 -4.2286,-15.1025 -0.2699,-1.9551 0.8495,-1.9866 1.0195,-0.6092 3.2209,13.0546 20.3749,9.5173 19.7837,-2.7597 -0.4784,-9.9639 -9.8239,-12.1064 -14.6978,-8.8472 -1.9228,1.1973 -1.8144,0.482 -0.7645,-0.7646 7.239,-8.546 2.8561,-19.551 -6.9183,-19.7633 0,0 0,10e-5 -0.01,0 z"
         id="path147-0-8-1-6-13-2-22-1-5"
         inkscape:connector-curvature="0"
         sodipodi:nodetypes="ccccccccccccccc"
         style="display:inline;opacity:1" />
      <path
         d="m 2901.1358,-1055.3648 c -9.7745,0.2123 -14.1575,11.2173 -6.9184,19.7633 1.0499,1.2466 1.1582,1.9619 -0.7646,0.7646 -4.8738,-3.2592 -14.2192,-1.1167 -14.6978,8.8472 -0.5911,12.277 16.5629,15.8143 19.7837,2.7597 0.1701,-1.3774 1.2894,-1.3459 1.0196,0.6092 -0.2937,5.3064 -1.9509,10.266 -4.2287,15.1025 3.8391,0 8.1296,0 11.6202,0 -2.2777,-4.8365 -3.9349,-9.7961 -4.2286,-15.1025 -0.2699,-1.9551 0.8495,-1.9866 1.0195,-0.6092 3.2209,13.0546 20.3749,9.5173 19.7837,-2.7597 -0.4784,-9.9639 -9.8239,-12.1064 -14.6978,-8.8472 -1.9228,1.1973 -1.8145,0.482 -0.7646,-0.7646 7.2391,-8.546 2.8561,-19.551 -6.9182,-19.7633 0,0 0,10e-5 -0.01,0 z"
         id="path147-0-8-1-6-75-2-83-21-1-8"
         inkscape:connector-curvature="0"
         sodipodi:nodetypes="ccccccccccccccc"
         inkscape:transform-center-x="-110.30866"
         inkscape:transform-center-y="0.35355339"
         style="display:inline;opacity:1" />
      <path
         d="m 3004.2066,-809.7317 c -9.7745,-0.21226 -14.1574,-11.21727 -6.9184,-19.76328 1.0499,-1.24653 1.1582,-1.96188 -0.7646,-0.76453 -4.8738,3.25919 -14.2192,1.11663 -14.6978,-8.84728 -0.5911,-12.27695 16.5629,-15.81426 19.7837,-2.75967 0.1701,1.37736 1.2895,1.34594 1.0196,-0.60916 -0.2937,-5.30641 -1.9509,-10.26606 -4.2287,-15.10253 3.8391,0 8.1296,0 11.6202,0 -2.2777,4.83647 -3.9349,9.79612 -4.2286,15.10253 -0.2699,1.9551 0.8495,1.98652 1.0195,0.60916 3.2209,-13.05459 20.3749,-9.51728 19.7837,2.75967 -0.4784,9.96391 -9.8239,12.10647 -14.6978,8.84728 -1.9228,-1.19735 -1.8144,-0.482 -0.7645,0.76453 7.239,8.54601 2.8561,19.55101 -6.9183,19.76328 0,6e-5 0,-5e-5 -0.01,0 z"
         id="path147-0-8-1-6-7-5-5-7-3-5-5"
         inkscape:connector-curvature="0"
         sodipodi:nodetypes="ccccccccccccccc"
         style="display:inline;opacity:1" />
      <path
         d="m 2901.1358,-809.7317 c -9.7745,-0.21226 -14.1575,-11.21727 -6.9184,-19.76328 1.0499,-1.24653 1.1582,-1.96188 -0.7646,-0.76453 -4.8738,3.25919 -14.2192,1.11663 -14.6978,-8.84728 -0.5911,-12.27695 16.5629,-15.81426 19.7837,-2.75967 0.1701,1.37736 1.2894,1.34594 1.0196,-0.60916 -0.2937,-5.30641 -1.9509,-10.26606 -4.2287,-15.10253 3.8391,0 8.1296,0 11.6202,0 -2.2777,4.83647 -3.9349,9.79612 -4.2286,15.10253 -0.2699,1.9551 0.8495,1.98652 1.0195,0.60916 3.2209,-13.05459 20.3749,-9.51728 19.7837,2.75967 -0.4784,9.96391 -9.8239,12.10647 -14.6978,8.84728 -1.9228,-1.19735 -1.8145,-0.482 -0.7646,0.76453 7.2391,8.54601 2.8561,19.55101 -6.9182,19.76328 0,6e-5 0,-5e-5 -0.01,0 z"
         id="path147-0-8-1-6-75-6-1-2-7-9-3"
         inkscape:connector-curvature="0"
         sodipodi:nodetypes="ccccccccccccccc"
         inkscape:transform-center-x="-110.30866"
         inkscape:transform-center-y="-0.35355495"
         style="display:inline;opacity:1" />
      <path
         d="m 2952.6711,-1022.4001 c -9.7745,0.2123 -14.1573,11.2173 -6.9184,19.7633 1.0499,1.2465 1.1582,1.9619 -0.7645,0.7645 -4.8739,-3.2592 -14.2193,-1.1166 -14.6979,8.84731 -0.5911,12.27694 16.5629,15.81426 19.7838,2.75966 0.17,-1.37736 1.2894,-1.34593 1.0195,0.60917 -0.2937,5.30641 -1.9509,10.26605 -4.2286,15.10252 3.839,0 8.1295,0 11.6202,0 -2.2777,-4.83647 -3.935,-9.79611 -4.2287,-15.10252 -0.2699,-1.9551 0.8495,-1.98653 1.0195,-0.60917 3.2209,13.0546 20.3749,9.51728 19.7838,-2.75966 -0.4785,-9.96391 -9.824,-12.10651 -14.6978,-8.84731 -1.9228,1.1974 -1.8145,0.482 -0.7646,-0.7645 7.239,-8.546 2.8561,-19.551 -6.9183,-19.7633 0,0 0,10e-5 -0.01,0 z"
         id="path147-0-8-1-6-2-00-7-1-1-4"
         inkscape:connector-curvature="0"
         sodipodi:nodetypes="ccccccccccccccc"
         style="display:inline;opacity:1" />
      <path
         d="m 2952.6712,-842.69613 c -9.7745,-0.21226 -14.1575,-11.21726 -6.9184,-19.76327 1.0499,-1.24653 1.1582,-1.96188 -0.7646,-0.76453 -4.8738,3.25919 -14.2192,1.11663 -14.6978,-8.84728 -0.5911,-12.27695 16.5629,-15.81427 19.7837,-2.75967 0.1701,1.37736 1.2895,1.34594 1.0196,-0.60916 -0.2937,-5.30642 -1.9509,-10.26607 -4.2287,-15.10254 3.8391,0 8.1296,0 11.6202,0 -2.2777,4.83647 -3.9349,9.79612 -4.2286,15.10254 -0.2699,1.9551 0.8495,1.98652 1.0195,0.60916 3.2209,-13.0546 20.3749,-9.51728 19.7837,2.75967 -0.4784,9.96391 -9.8239,12.10647 -14.6978,8.84728 -1.9228,-1.19735 -1.8144,-0.482 -0.7646,0.76453 7.2391,8.54601 2.8562,19.551 -6.9182,19.76327 0,6e-5 0,-5e-5 -0.01,0 z"
         id="path147-0-8-1-6-2-0-8-6-8-1-8"
         inkscape:connector-curvature="0"
         sodipodi:nodetypes="ccccccccccccccc"
         style="display:inline;opacity:1" />
      <path
         d="m 3046.6532,-827.36919 c 3.9097,-0.0884 5.663,-4.67386 2.7673,-8.23469 -0.42,-0.51939 -0.4633,-0.81746 0.3059,-0.31856 1.9495,1.358 5.6877,0.46526 5.8791,-3.68637 0.2365,-5.1154 -6.6252,-6.58928 -7.9135,-1.14986 -0.068,0.57391 -0.5158,0.56081 -0.4078,-0.25382 0.1175,-2.211 0.7803,-4.27752 1.6914,-6.29271 -1.5492,0 -3.0986,0 -4.6478,0 0.9111,2.01519 1.5739,4.08171 1.6914,6.29271 0.108,0.81463 -0.3398,0.82773 -0.4078,0.25382 -1.2883,-5.43942 -8.1499,-3.96554 -7.9135,1.14986 0.1914,4.15163 3.9296,5.04437 5.8791,3.68637 0.7692,-0.4989 0.7259,-0.20083 0.3059,0.31856 -2.8957,3.56083 -1.1424,8.14624 2.7673,8.23469 10e-4,2e-5 0,-2e-5 0,0 z"
         id="path147-6-9-8-7-0-5-6-83-3-7"
         inkscape:connector-curvature="0"
         sodipodi:nodetypes="ccccccccccccccc"
         style="display:inline;opacity:1" />
      <path
         d="m 2901.1358,-989.43589 c -9.7745,0.21226 -14.1574,11.21727 -6.9184,19.76328 1.0499,1.24653 1.1582,1.96188 -0.7646,0.76453 -4.8738,-3.25919 -14.2192,-1.11663 -14.6978,8.84728 -0.5911,12.27695 16.5629,15.81426 19.7837,2.75967 0.1701,-1.37736 1.2894,-1.34594 1.0196,0.60916 -0.2937,5.30641 -1.9509,10.26606 -4.2287,15.10253 3.8391,0 8.1296,0 11.6202,0 -2.2777,-4.83647 -3.9349,-9.79612 -4.2286,-15.10253 -0.2699,-1.9551 0.8495,-1.98652 1.0195,-0.60916 3.2209,13.05459 20.3749,9.51728 19.7837,-2.75967 -0.4784,-9.96391 -9.8239,-12.10647 -14.6978,-8.84728 -1.9228,1.19735 -1.8145,0.482 -0.7646,-0.76453 7.2391,-8.54601 2.8561,-19.55101 -6.9182,-19.76328 0,-6e-5 0,5e-5 -0.01,0 z"
         id="path147-0-8-1-6-75-2-9-77-44-0-7"
         inkscape:connector-curvature="0"
         sodipodi:nodetypes="ccccccccccccccc"
         inkscape:transform-center-x="-110.30866"
         inkscape:transform-center-y="0.35355339"
         style="display:inline;opacity:1" />
      <path
         d="m 2901.1358,-875.66057 c -9.7745,-0.21226 -14.1575,-11.21728 -6.9184,-19.76329 1.0499,-1.24653 1.1582,-1.96188 -0.7646,-0.76453 -4.8738,3.25919 -14.2192,1.11663 -14.6978,-8.84728 -0.5911,-12.27694 16.5629,-15.81426 19.7837,-2.75966 0.1701,1.37736 1.2894,1.34593 1.0196,-0.60917 -0.2937,-5.30641 -1.9509,-10.26606 -4.2287,-15.10253 3.8391,0 8.1296,0 11.6202,0 -2.2777,4.83647 -3.9349,9.79612 -4.2286,15.10253 -0.2699,1.9551 0.8495,1.98653 1.0195,0.60917 3.2209,-13.0546 20.3749,-9.51728 19.7837,2.75966 -0.4784,9.96391 -9.8239,12.10647 -14.6978,8.84728 -1.9228,-1.19735 -1.8145,-0.482 -0.7646,0.76453 7.2391,8.54601 2.8561,19.55102 -6.9182,19.76329 0,6e-5 0,-5e-5 -0.01,0 z"
         id="path147-0-8-1-6-75-2-8-0-3-9-3"
         inkscape:connector-curvature="0"
         sodipodi:nodetypes="ccccccccccccccc"
         inkscape:transform-center-x="-110.30866"
         inkscape:transform-center-y="-0.35355495"
         style="display:inline;opacity:1" />
      <path
         d="m 3004.2066,-989.43589 c -9.7745,0.21226 -14.1574,11.21727 -6.9184,19.76328 1.0499,1.24653 1.1582,1.96188 -0.7646,0.76453 -4.8738,-3.25919 -14.2192,-1.11663 -14.6978,8.84728 -0.5911,12.27695 16.5629,15.81426 19.7837,2.75967 0.1701,-1.37736 1.2895,-1.34594 1.0196,0.60916 -0.2937,5.30641 -1.9509,10.26606 -4.2287,15.10253 3.8391,0 8.1296,0 11.6202,0 -2.2777,-4.83647 -3.9349,-9.79612 -4.2286,-15.10253 -0.2699,-1.9551 0.8495,-1.98652 1.0195,-0.60916 3.2209,13.05459 20.3749,9.51728 19.7837,-2.75967 -0.4784,-9.96391 -9.8239,-12.10647 -14.6978,-8.84728 -1.9228,1.19735 -1.8144,0.482 -0.7645,-0.76453 7.239,-8.54601 2.8561,-19.55101 -6.9183,-19.76328 0,-6e-5 0,5e-5 -0.01,0 z"
         id="path147-0-8-1-6-75-2-9-7-1-9-7-9"
         inkscape:connector-curvature="0"
         sodipodi:nodetypes="ccccccccccccccc"
         inkscape:transform-center-x="-110.30866"
         inkscape:transform-center-y="0.35355339"
         style="display:inline;opacity:1" />
      <path
         d="m 3004.2066,-875.66057 c -9.7745,-0.21226 -14.1574,-11.21728 -6.9184,-19.76329 1.0499,-1.24653 1.1582,-1.96188 -0.7646,-0.76453 -4.8738,3.25919 -14.2192,1.11663 -14.6978,-8.84728 -0.5911,-12.27694 16.5629,-15.81426 19.7837,-2.75966 0.1701,1.37736 1.2895,1.34593 1.0196,-0.60917 -0.2937,-5.30641 -1.9509,-10.26606 -4.2287,-15.10253 3.8391,0 8.1296,0 11.6202,0 -2.2777,4.83647 -3.9349,9.79612 -4.2286,15.10253 -0.2699,1.9551 0.8495,1.98653 1.0195,0.60917 3.2209,-13.0546 20.3749,-9.51728 19.7837,2.75966 -0.4784,9.96391 -9.8239,12.10647 -14.6978,8.84728 -1.9228,-1.19735 -1.8144,-0.482 -0.7645,0.76453 7.239,8.54601 2.8561,19.55102 -6.9183,19.76329 0,6e-5 0,-5e-5 -0.01,0 z"
         id="path147-0-8-1-6-75-2-8-5-1-52-2-8"
         inkscape:connector-curvature="0"
         sodipodi:nodetypes="ccccccccccccccc"
         inkscape:transform-center-x="-110.30866"
         inkscape:transform-center-y="-0.35355495"
         style="display:inline;opacity:1" />
      <path
         d="m 2858.6982,-1038.5561 c -3.9098,0.088 -5.663,4.6738 -2.7674,8.2347 0.42,0.5194 0.4633,0.8174 -0.3058,0.3185 -1.9496,-1.358 -5.6877,-0.4652 -5.8791,3.6864 -0.2365,5.1154 6.6251,6.5893 7.9135,1.1499 0.068,-0.5739 0.5158,-0.5608 0.4077,0.2538 -0.1174,2.211 -0.7803,4.2775 -1.6914,6.2927 1.5493,0 3.0986,0 4.6479,0 -0.9111,-2.0152 -1.574,-4.0817 -1.6914,-6.2927 -0.108,-0.8146 0.3397,-0.8277 0.4077,-0.2538 1.2884,5.4394 8.15,3.9655 7.9136,-1.1499 -0.1915,-4.1516 -3.9296,-5.0444 -5.8792,-3.6864 -0.7691,0.4989 -0.7258,0.2009 -0.3058,-0.3185 2.8956,-3.5609 1.1424,-8.1463 -2.7673,-8.2347 -10e-4,0 0,0 0,0 z"
         id="path147-6-9-8-7-4-5-62-52-8-0"
         inkscape:connector-curvature="0"
         sodipodi:nodetypes="ccccccccccccccc"
         style="display:inline;opacity:1" />
      <path
         style="opacity:1"
         inkscape:connector-curvature="0"
         id="path31-6-7-6"
         d="m 2848.7242,-1041.6816 0,-32.8938 3.1846,0 0,32.8938 -3.1846,0 z m 0,0" />
      <path
         style="opacity:1"
         inkscape:connector-curvature="0"
         id="path33-9-3-6"
         d="m 2861.3484,-1074.576 c -3.0656,0 -5.5295,2.8036 -5.5295,6.2859 l 0,20.3233 c 0,3.4823 2.4652,6.2846 5.5295,6.2846 l 1.7893,0 c 3.0655,0 5.5345,-2.8023 5.5345,-6.2846 l 0,-20.3233 c 0,-3.4823 -2.4703,-6.2859 -5.5345,-6.2859 l -1.7893,0 z m 0.9253,3.1103 c 1.8099,0 3.2652,1.39 3.2652,3.1286 l 0,20.5922 c 0,1.7385 -1.4553,3.1416 -3.2652,3.1416 -1.8098,0 -3.2702,-1.4031 -3.2702,-3.1416 l 0,-20.5922 c 0,-1.7373 1.4604,-3.1286 3.2702,-3.1286 l 0,0 z m 0,0" />
      <path
         style="opacity:1"
         inkscape:connector-curvature="0"
         id="path31-1-4-0-7"
         d="m 3056.6243,-824.24369 0,32.8938 -3.1845,0 0,-32.8938 3.1845,0 z m 0,0" />
      <path
         style="opacity:1"
         inkscape:connector-curvature="0"
         id="path33-5-7-4-0"
         d="m 3044.0002,-791.34925 c 3.0655,0 5.5294,-2.80358 5.5294,-6.28587 l 0,-20.32334 c 0,-3.4823 -2.4652,-6.28458 -5.5294,-6.28458 l -1.7894,0 c -3.0655,0 -5.5345,2.80228 -5.5345,6.28458 l 0,20.32334 c 0,3.48229 2.4703,6.28587 5.5345,6.28587 l 1.7894,0 z m -0.9254,-3.1103 c -1.8099,0 -3.2652,-1.39004 -3.2652,-3.12859 l 0,-20.59222 c 0,-1.73854 1.4553,-3.14163 3.2652,-3.14163 1.8098,0 3.2703,1.40309 3.2703,3.14163 l 0,20.59222 c 0,1.73724 -1.4605,3.12859 -3.2703,3.12859 l 0,0 z m 0,0" />
    </g>
  </g>
</svg>
