<?xml version="1.0" encoding="iso-8859-1"?>
<!-- Generator: Adobe Illustrator 19.0.0, SVG Export Plug-In . SVG Version: 6.00 Build 0)  -->
<svg version="1.1" id="Layer_1" xmlns="http://www.w3.org/2000/svg" xmlns:xlink="http://www.w3.org/1999/xlink" x="0px" y="0px"
	 viewBox="0 0 512 512" style="enable-background:new 0 0 512 512;" xml:space="preserve">
<g>
	<path style="fill:#E6EEF4;" d="M423.724,0H88.276c-9.754,0-17.655,7.901-17.655,17.655v476.69c0,9.754,7.901,17.655,17.655,17.655
		h335.448c9.754,0,17.655-7.901,17.655-17.655V17.655C441.379,7.901,433.479,0,423.724,0"/>
	<g>
		<path d="M282.483,361.931L282.483,361.931c0,0,44.323,44.323,79.448-8.828c18.282-27.666,5.888-54.616-13.603-73.242
			l-83.906-82.635c-4.723-4.025-11.979-4.025-16.711,0l-85.124,82.635c-16.746,17.523-31.011,45.506-12.518,73.242
			c35.31,52.966,79.448,8.828,79.448,8.828c0,22.625-6.444,51.703-8.324,59.683c-0.256,1.112,0.6,2.11,1.739,2.11h66.145
			c1.139,0,1.986-0.997,1.73-2.101C288.936,413.617,282.483,384.415,282.483,361.931"/>
		<path d="M123.587,97.103c19.503,0,35.31-15.808,35.31-35.31s-15.808-35.31-35.31-35.31c-4.058,0-8.024,0.686-11.778,2.017
			c-5.252,1.849-9.826,5.02-14.202,9.396c-3.447,3.447-3.447,9.037,0,12.484c3.447,3.447,9.037,3.447,12.484,0
			c2.652-2.652,5.113-4.358,7.6-5.234c1.883-0.668,3.854-1.008,5.896-1.008c9.752,0,17.655,7.903,17.655,17.655
			s-7.903,17.655-17.655,17.655h-8.801c-4.875,0-8.828,3.952-8.828,8.828c0,4.875,3.952,8.828,8.828,8.828H123.587z"/>
		<path d="M123.589,150.067c19.503,0,35.31-15.808,35.31-35.31s-15.808-35.31-35.31-35.31h-8.828c-4.875,0-8.828,3.952-8.828,8.828
			c0,4.875,3.952,8.828,8.828,8.828h8.828c9.752,0,17.655,7.903,17.655,17.655s-7.903,17.655-17.655,17.655
			c-4.808,0-9.446-2.183-13.47-6.207c-3.447-3.447-9.037-3.447-12.484,0c-3.447,3.447-3.447,9.037,0,12.484
			C104.785,145.84,113.768,150.067,123.589,150.067z"/>
	</g>
</g>
<g>
</g>
<g>
</g>
<g>
</g>
<g>
</g>
<g>
</g>
<g>
</g>
<g>
</g>
<g>
</g>
<g>
</g>
<g>
</g>
<g>
</g>
<g>
</g>
<g>
</g>
<g>
</g>
<g>
</g>
</svg>
