<?xml version="1.0" encoding="iso-8859-1"?>
<!-- Generator: Adobe Illustrator 19.0.0, SVG Export Plug-In . SVG Version: 6.00 Build 0)  -->
<svg version="1.1" id="Layer_1" xmlns="http://www.w3.org/2000/svg" xmlns:xlink="http://www.w3.org/1999/xlink" x="0px" y="0px"
	 viewBox="0 0 512 512" style="enable-background:new 0 0 512 512;" xml:space="preserve">
<g>
	<path style="fill:#E6EEF4;" d="M423.724,0H88.276c-9.754,0-17.655,7.901-17.655,17.655v476.69c0,9.754,7.901,17.655,17.655,17.655
		h335.448c9.754,0,17.655-7.901,17.655-17.655V17.655C441.379,7.901,433.479,0,423.724,0"/>
	<g>
		<path d="M282.483,361.931L282.483,361.931c0,0,44.323,44.323,79.448-8.828c18.282-27.666,5.888-54.616-13.603-73.242
			l-83.906-82.635c-4.723-4.025-11.979-4.025-16.711,0l-85.124,82.635c-16.746,17.523-31.011,45.506-12.518,73.242
			c35.31,52.966,79.448,8.828,79.448,8.828l0,0c0,22.625-6.444,51.703-8.324,59.683c-0.256,1.112,0.6,2.11,1.739,2.11h66.145
			c1.139,0,1.986-0.997,1.73-2.101C288.936,413.617,282.483,384.415,282.483,361.931"/>
		<path d="M150.069,141.241l8.828-8.828h-52.966c-4.875,0-8.828,3.952-8.828,8.828s3.952,8.828,8.828,8.828h52.966
			c4.875,0,8.828-3.952,8.828-8.828v-8.828c0-4.875-3.952-8.828-8.828-8.828s-8.828,3.952-8.828,8.828V141.241z"/>
		<path d="M155.813,81.484l2.335-2.758l0.608-0.807c14.226-21.339-0.114-51.01-25.754-51.434l-0.588-0.001
			c-19.503,0-35.31,15.808-35.31,35.31c0,4.875,3.952,8.828,8.828,8.828c4.875,0,8.828-3.952,8.828-8.828
			c0-9.752,7.903-17.655,17.655-17.655h0.441c11.188,0.187,17.866,14.003,11.211,23.987l7.345,4.897l-6.737-5.704l-2.339,2.763
			c-17.382,20.563-32.248,43.121-44.298,67.212c-2.181,4.36-0.414,9.663,3.946,11.844c4.36,2.181,9.663,0.414,11.844-3.946
			C125.249,122.353,139.341,100.97,155.813,81.484z"/>
	</g>
</g>
<g>
</g>
<g>
</g>
<g>
</g>
<g>
</g>
<g>
</g>
<g>
</g>
<g>
</g>
<g>
</g>
<g>
</g>
<g>
</g>
<g>
</g>
<g>
</g>
<g>
</g>
<g>
</g>
<g>
</g>
</svg>
