<?xml version="1.0" encoding="iso-8859-1"?>
<!-- Generator: Adobe Illustrator 19.0.0, SVG Export Plug-In . SVG Version: 6.00 Build 0)  -->
<svg version="1.1" id="Layer_1" xmlns="http://www.w3.org/2000/svg" xmlns:xlink="http://www.w3.org/1999/xlink" x="0px" y="0px"
	 viewBox="0 0 512 512" style="enable-background:new 0 0 512 512;" xml:space="preserve">
<g>
	<path style="fill:#E6EEF4;" d="M423.724,0H88.276c-9.754,0-17.655,7.901-17.655,17.655v476.69c0,9.754,7.901,17.655,17.655,17.655
		h335.448c9.754,0,17.655-7.901,17.655-17.655V17.655C441.379,7.901,433.479,0,423.724,0"/>
	<g>
		<path d="M282.483,361.931L282.483,361.931c0,0,44.323,44.323,79.448-8.828c18.282-27.666,5.888-54.616-13.603-73.242
			l-83.906-82.635c-4.723-4.025-11.979-4.025-16.711,0l-85.124,82.635c-16.746,17.523-31.011,45.506-12.518,73.242
			c35.31,52.966,79.448,8.828,79.448,8.828c0,22.625-6.444,51.703-8.324,59.683c-0.256,1.112,0.6,2.11,1.739,2.11h66.145
			c1.139,0,1.986-0.997,1.73-2.101C288.936,413.617,282.483,384.415,282.483,361.931"/>
		<path d="M158.897,44.138c4.875,0,8.828-3.952,8.828-8.828s-3.952-8.828-8.828-8.828h-52.966c-4.875,0-8.828,3.952-8.828,8.828
			s3.952,8.828,8.828,8.828H158.897z"/>
		<path d="M114.759,35.31c0-4.875-3.952-8.828-8.828-8.828c-4.875,0-8.828,3.952-8.828,8.828v8.828c0,4.875,3.952,8.828,8.828,8.828
			c4.875,0,8.828-3.952,8.828-8.828V35.31z"/>
		<path d="M114.881,122.122c-0.809,4.808,2.433,9.361,7.241,10.17s9.361-2.433,10.17-7.241
			c6.146-36.533,13.104-53.566,33.951-84.845c2.704-4.057,1.607-9.538-2.45-12.241s-9.538-1.607-12.241,2.45
			C129.358,63.714,121.451,83.07,114.881,122.122z"/>
	</g>
</g>
<g>
</g>
<g>
</g>
<g>
</g>
<g>
</g>
<g>
</g>
<g>
</g>
<g>
</g>
<g>
</g>
<g>
</g>
<g>
</g>
<g>
</g>
<g>
</g>
<g>
</g>
<g>
</g>
<g>
</g>
</svg>
