<?xml version="1.0" encoding="UTF-8" standalone="no"?>
<!-- Created with Inkscape (http://www.inkscape.org/) -->

<svg
   xmlns:dc="http://purl.org/dc/elements/1.1/"
   xmlns:cc="http://creativecommons.org/ns#"
   xmlns:rdf="http://www.w3.org/1999/02/22-rdf-syntax-ns#"
   xmlns:svg="http://www.w3.org/2000/svg"
   xmlns="http://www.w3.org/2000/svg"
   xmlns:sodipodi="http://sodipodi.sourceforge.net/DTD/sodipodi-0.dtd"
   xmlns:inkscape="http://www.inkscape.org/namespaces/inkscape"
   width="63mm"
   height="88mm"
   viewBox="0 0 223.22835 311.81102"
   id="svg5811"
   version="1.1"
   inkscape:version="0.91 r13725"
   sodipodi:docname="clubs-3.svg">
  <defs
     id="defs5813" />
  <sodipodi:namedview
     id="base"
     pagecolor="#ffffff"
     bordercolor="#666666"
     borderopacity="1.0"
     inkscape:pageopacity="0.0"
     inkscape:pageshadow="2"
     inkscape:zoom="0.35"
     inkscape:cx="1043.757"
     inkscape:cy="147.33413"
     inkscape:document-units="px"
     inkscape:current-layer="layer1"
     showgrid="false"
     fit-margin-top="0"
     fit-margin-left="0"
     fit-margin-right="0"
     fit-margin-bottom="0"
     inkscape:window-width="1366"
     inkscape:window-height="705"
     inkscape:window-x="-4"
     inkscape:window-y="-4"
     inkscape:window-maximized="1" />
  <metadata
     id="metadata5816">
    <rdf:RDF>
      <cc:Work
         rdf:about="">
        <dc:format>image/svg+xml</dc:format>
        <dc:type
           rdf:resource="http://purl.org/dc/dcmitype/StillImage" />
        <dc:title></dc:title>
      </cc:Work>
    </rdf:RDF>
  </metadata>
  <g
     inkscape:label="Layer 1"
     inkscape:groupmode="layer"
     id="layer1"
     transform="translate(668.75705,-367.8853)">
    <g
       id="g5431"
       transform="translate(-1660.2426,1456.7535)">
      <g
         transform="matrix(0.99553774,0,0,0.99680134,732.71268,-1457.4607)"
         inkscape:label="5D"
         id="layer1-33-1-4-5-7">
        <rect
           ry="10.664032"
           rx="10.677567"
           style="display:inline;fill:#ffffff;fill-opacity:1;stroke:#000000;stroke-width:1.0005666;stroke-miterlimit:4;stroke-dasharray:none;stroke-opacity:1"
           id="rect6355-6-85-2-7-5"
           width="223.22835"
           height="311.81104"
           x="260.43304"
           y="370.27557" />
      </g>
      <path
         style="display:inline;opacity:1"
         sodipodi:nodetypes="ccccccccccccccc"
         inkscape:connector-curvature="0"
         id="path147-0-8-1-6-7-2-5-9-2"
         d="m 1103.0956,-1055.3647 c -9.7745,0.2123 -14.1574,11.2173 -6.9184,19.7633 1.0499,1.2465 1.1582,1.9619 -0.7646,0.7645 -4.8738,-3.2592 -14.2192,-1.1166 -14.6978,8.8473 -0.5911,12.2769 16.5629,15.8143 19.7837,2.7597 0.1701,-1.3774 1.2894,-1.346 1.0196,0.6091 -0.2937,5.3064 -1.9509,10.2661 -4.2287,15.1025 3.8391,0 8.1296,0 11.6202,0 -2.2777,-4.8364 -3.9349,-9.7961 -4.2286,-15.1025 -0.2699,-1.9551 0.8495,-1.9865 1.0195,-0.6091 3.2209,13.0546 20.3749,9.5172 19.7837,-2.7597 -0.4784,-9.9639 -9.8239,-12.1065 -14.6978,-8.8473 -1.9228,1.1974 -1.8145,0.482 -0.7645,-0.7645 7.239,-8.546 2.8561,-19.551 -6.9183,-19.7633 0,-10e-5 0,0 -0.01,0 z" />
      <path
         style="display:inline;opacity:1"
         sodipodi:nodetypes="ccccccccccccccc"
         inkscape:connector-curvature="0"
         id="path147-0-8-1-6-1-4-3-4-3"
         d="m 1103.0956,-809.73165 c -9.7745,-0.21226 -14.1574,-11.21727 -6.9184,-19.76329 1.0499,-1.24653 1.1582,-1.96187 -0.7646,-0.76452 -4.8738,3.25919 -14.2192,1.11662 -14.6978,-8.84728 -0.5911,-12.27695 16.5629,-15.81427 19.7837,-2.75967 0.1701,1.37736 1.2895,1.34593 1.0196,-0.60916 -0.2937,-5.30641 -1.9509,-10.26606 -4.2287,-15.10253 3.8391,0 8.1296,0 11.6202,0 -2.2776,4.83647 -3.9349,9.79612 -4.2286,15.10253 -0.2699,1.95509 0.8495,1.98652 1.0195,0.60916 3.2209,-13.0546 20.3749,-9.51728 19.7837,2.75967 -0.4784,9.9639 -9.8239,12.10647 -14.6978,8.84728 -1.9227,-1.19735 -1.8144,-0.48201 -0.7645,0.76452 7.239,8.54602 2.8561,19.55102 -6.9183,19.76329 0,6e-5 0,-5e-5 -0.01,0 z" />
      <path
         style="display:inline;opacity:1"
         sodipodi:nodetypes="ccccccccccccccc"
         inkscape:connector-curvature="0"
         id="path147-0-8-1-6-1-1-0-4-8-8"
         d="m 1103.0956,-956.4714 c -9.7745,0.21226 -14.1574,11.21727 -6.9184,19.76328 1.0499,1.24653 1.1582,1.96188 -0.7646,0.76453 -4.8738,-3.25919 -14.2192,-1.11663 -14.6978,8.84728 -0.5911,12.27694 16.5629,15.81426 19.7837,2.75966 0.1701,-1.37736 1.2894,-1.34593 1.0196,0.60917 -0.2937,5.30641 -1.9509,10.26606 -4.2287,15.10253 3.8391,0 8.1296,0 11.6202,0 -2.2777,-4.83647 -3.9349,-9.79612 -4.2286,-15.10253 -0.2699,-1.9551 0.8495,-1.98653 1.0195,-0.60917 3.2209,13.0546 20.3749,9.51728 19.7837,-2.75966 -0.4784,-9.96391 -9.8239,-12.10647 -14.6978,-8.84728 -1.9228,1.19735 -1.8144,0.482 -0.7645,-0.76453 7.239,-8.54601 2.8561,-19.55101 -6.9183,-19.76328 0,-6e-5 0,5e-5 -0.01,0 z" />
      <path
         style="display:inline;opacity:1"
         sodipodi:nodetypes="ccccccccccccccc"
         inkscape:connector-curvature="0"
         id="path147-6-9-8-7-0-5-5-1-4"
         d="m 1197.0776,-827.36914 c 3.9097,-0.0884 5.663,-4.67386 2.7674,-8.23469 -0.4201,-0.5194 -0.4634,-0.81746 0.3058,-0.31856 1.9495,1.358 5.6877,0.46526 5.8791,-3.68637 0.2365,-5.1154 -6.6252,-6.58928 -7.9135,-1.14986 -0.068,0.57391 -0.5158,0.56081 -0.4078,-0.25382 0.1175,-2.211 0.7803,-4.27752 1.6914,-6.29271 -1.5492,0 -3.0986,0 -4.6478,0 0.9111,2.01519 1.5739,4.08171 1.6914,6.29271 0.108,0.81463 -0.3398,0.82773 -0.4078,0.25382 -1.2883,-5.43942 -8.1499,-3.96554 -7.9135,1.14986 0.1914,4.15163 3.9296,5.04437 5.8791,3.68637 0.7692,-0.4989 0.7259,-0.20084 0.3059,0.31856 -2.8956,3.56083 -1.1424,8.14624 2.7673,8.23469 10e-4,2e-5 0,-2e-5 0,0 z" />
      <path
         style="display:inline;opacity:1"
         sodipodi:nodetypes="ccccccccccccccc"
         inkscape:connector-curvature="0"
         id="path147-6-9-8-7-4-5-8-2-3"
         d="m 1009.1226,-1038.5561 c -3.9098,0.088 -5.663,4.6739 -2.7674,8.2347 0.42,0.5194 0.4633,0.8175 -0.3058,0.3186 -1.9496,-1.358 -5.6877,-0.4653 -5.8792,3.6863 -0.23639,5.1154 6.6252,6.5893 7.9136,1.1499 0.068,-0.5739 0.5158,-0.5608 0.4077,0.2538 -0.1174,2.211 -0.7803,4.2775 -1.6914,6.2927 1.5493,0 3.0986,0 4.6479,0 -0.9111,-2.0152 -1.574,-4.0817 -1.6914,-6.2927 -0.108,-0.8146 0.3397,-0.8277 0.4077,-0.2538 1.2884,5.4394 8.15,3.9655 7.9136,-1.1499 -0.1915,-4.1516 -3.9296,-5.0443 -5.8792,-3.6863 -0.7691,0.4989 -0.7258,0.2008 -0.3058,-0.3186 2.8956,-3.5608 1.1424,-8.1462 -2.7673,-8.2347 -10e-4,0 0,0 0,0 z" />
      <path
         style="opacity:1"
         inkscape:connector-curvature="0"
         id="path17-9-7-6-4"
         d="m 998.46109,-1048.8921 2.52921,-1.8626 c 2.1951,3.5789 4.65,5.9361 8.4054,5.5315 5.6343,-0.3876 7.969,-6.3015 6.7901,-10.7575 -1.1403,-3.9979 -5.8058,-5.9452 -9.5151,-3.8138 -0.8755,0.5051 -1.7202,0.9175 -1.8854,0.9175 -0.389,0 -1.2697,-1.7542 -1.1493,-2.2893 2.4894,-3.6402 8.5346,-10.0175 8.5346,-10.0175 l -9.4447,0 0,4.2707 -3.62478,0 0,-7.6629 18.45938,0 0,2.6 c 0,0 -4.9458,5.1359 -6.5802,7.9487 4.0254,0.1475 7.2701,2.7018 8.4349,6.7401 0.6796,2.1262 0.375,6.9894 -0.5146,9.0855 -1.486,3.4941 -5.5448,6.329 -9.2552,6.4921 -6.2296,0.419 -9.5344,-3.9508 -11.18431,-7.1825 l 0,0 z m 0,0" />
      <path
         style="opacity:1"
         inkscape:connector-curvature="0"
         id="path17-5-0-1-5-7"
         d="m 1207.7369,-817.03308 -2.5292,1.86252 c -2.1951,-3.57892 -4.65,-5.93615 -8.4054,-5.53145 -5.6343,0.38765 -7.9689,6.30148 -6.7901,10.75748 1.1404,3.99787 5.8059,5.94522 9.5151,3.81386 0.8755,-0.50518 1.7202,-0.91756 1.8854,-0.91756 0.389,0 1.2697,1.75418 1.1493,2.28926 -2.4894,3.64032 -8.5346,10.01755 -8.5346,10.01755 l 9.4447,0 0,-4.27069 3.6248,0 0,7.66291 -18.4594,0 0,-2.59996 c 0,0 4.9458,-5.13602 6.5802,-7.94879 -4.0254,-0.14743 -7.2701,-2.70173 -8.4348,-6.74007 -0.6797,-2.12618 -0.3751,-6.98938 0.5145,-9.08555 1.486,-3.49399 5.5448,-6.32899 9.2553,-6.49207 6.2295,-0.41895 9.5343,3.95083 11.1842,7.18256 l 0,0 z m 0,0" />
    </g>
  </g>
</svg>
