<?xml version="1.0" encoding="UTF-8" standalone="no"?>
<!-- Created with Inkscape (http://www.inkscape.org/) -->

<svg
   xmlns:dc="http://purl.org/dc/elements/1.1/"
   xmlns:cc="http://creativecommons.org/ns#"
   xmlns:rdf="http://www.w3.org/1999/02/22-rdf-syntax-ns#"
   xmlns:svg="http://www.w3.org/2000/svg"
   xmlns="http://www.w3.org/2000/svg"
   xmlns:sodipodi="http://sodipodi.sourceforge.net/DTD/sodipodi-0.dtd"
   xmlns:inkscape="http://www.inkscape.org/namespaces/inkscape"
   width="63mm"
   height="88mm"
   viewBox="0 0 223.22835 311.81102"
   id="svg5861"
   version="1.1"
   inkscape:version="0.91 r13725"
   sodipodi:docname="clubs-7.svg">
  <defs
     id="defs5863" />
  <sodipodi:namedview
     id="base"
     pagecolor="#ffffff"
     bordercolor="#666666"
     borderopacity="1.0"
     inkscape:pageopacity="0.0"
     inkscape:pageshadow="2"
     inkscape:zoom="0.35"
     inkscape:cx="106.79971"
     inkscape:cy="-36.760369"
     inkscape:document-units="px"
     inkscape:current-layer="layer1"
     showgrid="false"
     inkscape:window-width="1366"
     inkscape:window-height="705"
     inkscape:window-x="-4"
     inkscape:window-y="-4"
     inkscape:window-maximized="1"
     fit-margin-top="0"
     fit-margin-left="0"
     fit-margin-right="0"
     fit-margin-bottom="0" />
  <metadata
     id="metadata5866">
    <rdf:RDF>
      <cc:Work
         rdf:about="">
        <dc:format>image/svg+xml</dc:format>
        <dc:type
           rdf:resource="http://purl.org/dc/dcmitype/StillImage" />
        <dc:title></dc:title>
      </cc:Work>
    </rdf:RDF>
  </metadata>
  <g
     inkscape:label="Layer 1"
     inkscape:groupmode="layer"
     id="layer1"
     transform="translate(-268.20029,-183.79083)">
    <g
       id="g5481"
       transform="matrix(0.99999718,0,0,1.000002,-1780.1796,1272.661)">
      <rect
         ry="10.629899"
         rx="10.62995"
         style="display:inline;opacity:1;fill:#ffffff;fill-opacity:1;stroke:#000000;stroke-width:0.99673378;stroke-miterlimit:4;stroke-dasharray:none;stroke-opacity:1"
         id="rect6355-6-85-3-1-8-1"
         width="222.23224"
         height="310.81366"
         x="2048.884"
         y="-1088.3696" />
      <path
         style="display:inline;opacity:1"
         sodipodi:nodetypes="ccccccccccccccc"
         inkscape:connector-curvature="0"
         id="path147-0-8-1-6-13-2-0-1-5"
         d="m 2211.5312,-1055.3647 c -9.7745,0.2122 -14.1574,11.2172 -6.9184,19.7633 1.0499,1.2465 1.1582,1.9618 -0.7645,0.7645 -4.8739,-3.2592 -14.2193,-1.1166 -14.6979,8.8473 -0.5911,12.2769 16.5629,15.8142 19.7838,2.7596 0.17,-1.3773 1.2895,-1.3459 1.0195,0.6092 -0.2937,5.3064 -1.9509,10.2661 -4.2287,15.1025 3.8391,0 8.1296,0 11.6203,0 -2.2777,-4.8364 -3.935,-9.7961 -4.2287,-15.1025 -0.2699,-1.9551 0.8495,-1.9865 1.0195,-0.6092 3.2209,13.0546 20.3749,9.5173 19.7838,-2.7596 -0.4785,-9.9639 -9.824,-12.1065 -14.6979,-8.8473 -1.9227,1.1973 -1.8144,0.482 -0.7645,-0.7645 7.239,-8.5461 2.8561,-19.5511 -6.9183,-19.7633 0,-10e-5 0,0 -0.01,0 z" />
      <path
         style="display:inline;opacity:1"
         inkscape:transform-center-y="0.35355339"
         inkscape:transform-center-x="-110.30866"
         sodipodi:nodetypes="ccccccccccccccc"
         inkscape:connector-curvature="0"
         id="path147-0-8-1-6-75-2-83-2-0-7"
         d="m 2108.4604,-1055.3647 c -9.7745,0.2122 -14.1574,11.2172 -6.9184,19.7633 1.0499,1.2465 1.1582,1.9618 -0.7646,0.7645 -4.8738,-3.2592 -14.2191,-1.1166 -14.6978,8.8473 -0.591,12.2769 16.5629,15.8142 19.7838,2.7596 0.17,-1.3773 1.2894,-1.3459 1.0195,0.6092 -0.2937,5.3064 -1.9509,10.2661 -4.2287,15.1025 3.8391,0 8.1296,0 11.6203,0 -2.2777,-4.8364 -3.935,-9.7961 -4.2287,-15.1025 -0.2699,-1.9551 0.8495,-1.9865 1.0195,-0.6092 3.2209,13.0546 20.3749,9.5173 19.7838,-2.7596 -0.4785,-9.9639 -9.824,-12.1065 -14.6979,-8.8473 -1.9227,1.1973 -1.8144,0.482 -0.7645,-0.7645 7.239,-8.5461 2.8561,-19.5511 -6.9183,-19.7633 0,-10e-5 0,0 -0.01,0 z" />
      <path
         style="display:inline;opacity:1"
         sodipodi:nodetypes="ccccccccccccccc"
         inkscape:connector-curvature="0"
         id="path147-0-8-1-6-7-5-5-7-7-7-6"
         d="m 2211.5312,-809.73168 c -9.7745,-0.21226 -14.1574,-11.21727 -6.9184,-19.76328 1.0499,-1.24653 1.1582,-1.96188 -0.7645,-0.76453 -4.8739,3.25919 -14.2192,1.11663 -14.6979,-8.84728 -0.591,-12.27694 16.5629,-15.81426 19.7838,-2.75966 0.17,1.37736 1.2895,1.34593 1.0195,-0.60917 -0.2937,-5.30641 -1.9509,-10.26605 -4.2287,-15.10253 3.8391,0 8.1296,0 11.6203,0 -2.2777,4.83648 -3.935,9.79612 -4.2287,15.10253 -0.2699,1.9551 0.8495,1.98653 1.0195,0.60917 3.2209,-13.0546 20.3749,-9.51728 19.7838,2.75966 -0.4785,9.96391 -9.824,12.10647 -14.6979,8.84728 -1.9227,-1.19735 -1.8144,-0.482 -0.7645,0.76453 7.239,8.54601 2.8561,19.55101 -6.9183,19.76328 0,6e-5 0,-5e-5 -0.01,0 z" />
      <path
         style="display:inline;opacity:1"
         inkscape:transform-center-y="-0.35355495"
         inkscape:transform-center-x="-110.30866"
         sodipodi:nodetypes="ccccccccccccccc"
         inkscape:connector-curvature="0"
         id="path147-0-8-1-6-75-6-1-2-9-1-9"
         d="m 2108.4604,-809.73168 c -9.7745,-0.21226 -14.1574,-11.21727 -6.9184,-19.76328 1.0499,-1.24653 1.1582,-1.96188 -0.7646,-0.76453 -4.8738,3.25919 -14.2191,1.11663 -14.6978,-8.84728 -0.591,-12.27694 16.5629,-15.81426 19.7838,-2.75966 0.17,1.37736 1.2894,1.34593 1.0195,-0.60917 -0.2937,-5.30641 -1.9509,-10.26605 -4.2287,-15.10253 3.8391,0 8.1296,0 11.6203,0 -2.2777,4.83648 -3.935,9.79612 -4.2287,15.10253 -0.2699,1.9551 0.8495,1.98653 1.0195,0.60917 3.2209,-13.0546 20.3749,-9.51728 19.7838,2.75966 -0.4785,9.96391 -9.824,12.10647 -14.6979,8.84728 -1.9227,-1.19735 -1.8144,-0.482 -0.7645,0.76453 7.239,8.54601 2.8561,19.55101 -6.9183,19.76328 0,6e-5 0,-5e-5 -0.01,0 z" />
      <path
         style="display:inline;opacity:1"
         sodipodi:nodetypes="ccccccccccccccc"
         inkscape:connector-curvature="0"
         id="path147-0-8-1-6-2-00-7-2-3-4"
         d="m 2159.996,-1005.9179 c -9.7745,0.2122 -14.1573,11.21724 -6.9184,19.76326 1.0499,1.24653 1.1583,1.96187 -0.7646,0.76452 -4.8737,-3.25919 -14.2191,-1.11662 -14.6977,8.84727 -0.5911,12.27695 16.5628,15.81427 19.7836,2.75967 0.1701,-1.37736 1.2895,-1.34593 1.0196,0.60916 -0.2937,5.30642 -1.9509,10.26606 -4.2287,15.10253 3.8391,0 8.1296,0 11.6202,0 -2.2776,-4.83647 -3.9349,-9.79611 -4.2286,-15.10253 -0.2699,-1.95509 0.8495,-1.98652 1.0195,-0.60916 3.2209,13.0546 20.3749,9.51728 19.7838,-2.75967 -0.4785,-9.96389 -9.824,-12.10646 -14.6979,-8.84727 -1.9227,1.19735 -1.8144,0.48201 -0.7645,-0.76452 7.239,-8.54602 2.8561,-19.55106 -6.9183,-19.76326 0,-10e-5 0,0 -0.01,0 z" />
      <path
         style="display:inline;opacity:1"
         sodipodi:nodetypes="ccccccccccccccc"
         inkscape:connector-curvature="0"
         id="path147-0-8-1-6-7-5-7-3-0-1-7-4"
         d="m 2211.5312,-956.47142 c -9.7745,0.21225 -14.1574,11.21726 -6.9184,19.76328 1.0499,1.24653 1.1582,1.96187 -0.7645,0.76452 -4.8739,-3.25919 -14.2193,-1.11662 -14.6979,8.84728 -0.591,12.27695 16.5629,15.81427 19.7838,2.75967 0.17,-1.37736 1.2894,-1.34593 1.0195,0.60916 -0.2937,5.30642 -1.9509,10.26606 -4.2287,15.10253 3.8391,0 8.1296,0 11.6203,0 -2.2777,-4.83647 -3.935,-9.79611 -4.2287,-15.10253 -0.2699,-1.95509 0.8495,-1.98652 1.0195,-0.60916 3.2209,13.0546 20.3749,9.51728 19.7838,-2.75967 -0.4785,-9.9639 -9.824,-12.10647 -14.6979,-8.84728 -1.9227,1.19735 -1.8144,0.48201 -0.7645,-0.76452 7.239,-8.54602 2.8561,-19.55102 -6.9183,-19.76328 0,-6e-5 0,5e-5 -0.01,0 z" />
      <path
         style="display:inline;opacity:1"
         inkscape:transform-center-y="0.35355651"
         inkscape:transform-center-x="-110.30866"
         sodipodi:nodetypes="ccccccccccccccc"
         inkscape:connector-curvature="0"
         id="path147-0-8-1-6-75-6-6-5-3-9-6-0"
         d="m 2108.4604,-956.47142 c -9.7745,0.21225 -14.1574,11.21726 -6.9184,19.76328 1.0499,1.24653 1.1582,1.96187 -0.7646,0.76452 -4.8738,-3.25919 -14.2191,-1.11662 -14.6977,8.84728 -0.5911,12.27695 16.5628,15.81427 19.7837,2.75967 0.17,-1.37736 1.2894,-1.34593 1.0195,0.60916 -0.2937,5.30642 -1.9509,10.26606 -4.2287,15.10253 3.8391,0 8.1296,0 11.6203,0 -2.2777,-4.83647 -3.935,-9.79611 -4.2287,-15.10253 -0.2699,-1.95509 0.8495,-1.98652 1.0195,-0.60916 3.2209,13.0546 20.3749,9.51728 19.7838,-2.75967 -0.4785,-9.9639 -9.824,-12.10647 -14.6979,-8.84728 -1.9227,1.19735 -1.8144,0.48201 -0.7645,-0.76452 7.239,-8.54602 2.8561,-19.55102 -6.9183,-19.76328 0,-6e-5 0,5e-5 -0.01,0 z" />
      <path
         style="display:inline;opacity:1"
         sodipodi:nodetypes="ccccccccccccccc"
         inkscape:connector-curvature="0"
         id="path147-6-9-8-7-0-5-6-8-4-3"
         d="m 2253.9779,-827.36916 c 3.9097,-0.0884 5.663,-4.67387 2.7674,-8.2347 -0.4201,-0.51939 -0.4634,-0.81746 0.3058,-0.31856 1.9496,1.35801 5.6877,0.46526 5.8791,-3.68637 0.2365,-5.11539 -6.6252,-6.58927 -7.9135,-1.14986 -0.068,0.57391 -0.5158,0.56081 -0.4078,-0.25381 0.1175,-2.21101 0.7803,-4.27753 1.6915,-6.29272 -1.5493,0 -3.0987,0 -4.6479,0 0.9111,2.01519 1.5739,4.08171 1.6914,6.29272 0.108,0.81462 -0.3398,0.82772 -0.4078,0.25381 -1.2883,-5.43941 -8.1499,-3.96553 -7.9135,1.14986 0.1914,4.15163 3.9296,5.04438 5.8792,3.68637 0.7691,-0.4989 0.7258,-0.20083 0.3058,0.31856 -2.8956,3.56083 -1.1424,8.14624 2.7673,8.2347 10e-4,2e-5 0,-2e-5 0,0 z" />
      <path
         style="display:inline;opacity:1"
         sodipodi:nodetypes="ccccccccccccccc"
         inkscape:connector-curvature="0"
         id="path147-6-9-8-7-4-5-62-5-2-9"
         d="m 2066.0229,-1038.5561 c -3.9097,0.088 -5.663,4.6739 -2.7674,8.2347 0.42,0.5194 0.4633,0.8175 -0.3058,0.3186 -1.9497,-1.358 -5.6877,-0.4653 -5.8791,3.6863 -0.2365,5.1154 6.6252,6.5893 7.9134,1.1499 0.068,-0.5739 0.5159,-0.5608 0.4079,0.2538 -0.1176,2.211 -0.7803,4.2775 -1.6915,6.2927 1.5493,0 3.0986,0 4.6479,0 -0.9111,-2.0152 -1.5739,-4.0817 -1.6915,-6.2927 -0.1079,-0.8146 0.3398,-0.8277 0.4079,-0.2538 1.2882,5.4394 8.1499,3.9655 7.9134,-1.1499 -0.1914,-4.1516 -3.9295,-5.0443 -5.8791,-3.6863 -0.7691,0.4989 -0.7258,0.2008 -0.3059,-0.3186 2.8957,-3.5608 1.1424,-8.1462 -2.7672,-8.2347 0,0 0,0 0,0 z" />
      <path
         style="opacity:1"
         inkscape:connector-curvature="0"
         id="path25-6-8-8"
         d="m 2060.9729,-1041.6852 c 2.1606,-11.4366 4.4606,-20.0224 10.4994,-29.3406 l -12.2747,0 0,4.011 -3.2588,0 0,-7.5612 17.9538,0 2.2144,3.5502 c -6.4138,7.0105 -12.2837,29.6721 -11.2444,29.3406 l -3.8897,0 z m 0,0" />
      <path
         style="opacity:1"
         inkscape:connector-curvature="0"
         id="path25-7-7-3-9"
         d="m 2259.025,-824.24006 c -2.1606,11.4365 -4.4606,20.02245 -10.4994,29.34054 l 12.2747,0 0,-4.01102 3.2588,0 0,7.56133 -17.9539,0 -2.2143,-3.55031 c 6.4138,-7.0104 12.2837,-29.67208 11.2444,-29.34054 l 3.8897,0 z m 0,0" />
    </g>
  </g>
</svg>
